<?xml version="1.0" encoding="utf-8"?>
<!-- Generator: Adobe Illustrator 22.0.1, SVG Export Plug-In . SVG Version: 6.00 Build 0)  -->
<svg version="1.1" id="레이어_1" xmlns="http://www.w3.org/2000/svg" xmlns:xlink="http://www.w3.org/1999/xlink" x="0px"
	 y="0px" viewBox="0 0 118.2 118" style="enable-background:new 0 0 118.2 118;" xml:space="preserve">
<style type="text/css">
	.st0{display:none;}
	.st1{fill:#BEABCA;}
	.st2{fill:#282828;}
	.st3{fill:none;stroke:#BEABCA;stroke-width:0.5;stroke-miterlimit:10;}
</style>
<g id="레이어_2_1_" class="st0">
</g>
<g id="레이어_3">
	<path class="st1" d="M9.6,35.2c-0.1-0.4-0.3-1.1-1-1.8c-0.2-0.2-1.1-1.1-1.7-0.8c-0.5,0.2-0.5,1.3-0.5,1.8C6.5,35.3,7,35.6,6.8,36
		c-0.2,0.4-0.6,0.3-1.4,0.8c-0.5,0.3-1.4,1.1-1.3,1.7c0.2,0.6,1.4,1,2.4,0.7c0.6-0.2,0.9-0.5,1.3-0.4c0.4,0.1,0.3,0.7,0.7,1.4
		c0.4,0.7,1.3,1.5,1.9,1.3c0.5-0.2,0.7-1.2,0.6-1.8c-0.1-1-0.6-1.4-0.4-1.8c0.2-0.5,0.9-0.2,1.7-0.8c0.6-0.4,1.1-1.3,0.9-1.9
		c-0.3-0.7-1.6-0.6-2.1-0.5C10.4,34.9,9.9,35.1,9.6,35.2z"/>
	<g>
		<path d="M38.5,51.5v2.6l-1.1,0.1c-0.2-0.1-0.3-0.4-0.4-0.8h-2.1v8.4c0.5,0.2,0.8,0.4,1,0.6l-0.2,1.5h-4.1l-0.2-1.5
			c0.2-0.2,0.5-0.4,1-0.6v-8.4h-2.1c-0.1,0.4-0.3,0.6-0.4,0.8l-1.1-0.1v-2.6H38.5z"/>
		<path d="M44.2,51.4l3.5,10.4c0.5,0.2,0.8,0.4,1,0.6l-0.2,1.5h-4.1l-0.2-1.5c0.1-0.2,0.4-0.4,0.8-0.5l-0.5-1.5H41l-0.4,1.5
			c0.4,0.2,0.7,0.4,0.9,0.6L41.3,64h-4l-0.2-1.5c0.2-0.3,0.6-0.5,1.2-0.7l3.4-10.3L44.2,51.4L44.2,51.4z M42.8,53.9
			c0,0.7-0.1,1.6-0.4,2.6l-0.7,2.2h2.5l-0.7-2.2c-0.3-0.8-0.4-1.6-0.5-2.3v-0.3C43,53.9,42.8,53.9,42.8,53.9z"/>
		<path d="M53.4,51.5c1.4,0,2.4,0.1,3,0.3c0.6,0.2,1.1,0.4,1.3,0.6c0.6,0.5,0.9,1.3,0.9,2.4c0,0.8-0.4,1.6-1.3,2.3
			c1.1,0.6,1.6,1.6,1.6,3.1c0,1.2-0.4,2.1-1.1,2.7c-0.8,0.6-1.9,0.9-3.4,1h-5l-0.2-1.5c0.2-0.2,0.5-0.4,1-0.6v-8.2
			c-0.5-0.2-0.8-0.4-1-0.6l0.2-1.5C49.4,51.5,53.4,51.5,53.4,51.5z M53.6,53.5h-0.9v3.1h1.4c0.6,0,1-0.2,1.4-0.5
			c0.3-0.3,0.5-0.7,0.5-1.1s-0.1-0.8-0.3-1c-0.2-0.2-0.5-0.4-0.8-0.4C54.6,53.5,54.2,53.5,53.6,53.5z M54.3,58.5h-1.6v3.4h1.2
			c0.8,0,1.4-0.1,1.8-0.4c0.4-0.2,0.6-0.7,0.6-1.3s-0.2-1.1-0.5-1.3C55.5,58.7,55,58.5,54.3,58.5z"/>
		<path d="M69.3,51.5v2.6l-1.1,0.1c-0.2-0.1-0.3-0.4-0.4-0.8h-2.1v8.4c0.5,0.2,0.8,0.4,1,0.6l-0.2,1.5h-4.2l-0.2-1.5
			c0.2-0.2,0.5-0.4,1-0.6v-8.4H61c-0.1,0.4-0.3,0.6-0.4,0.8l-1.1-0.1v-2.6H69.3z"/>
		<path d="M75,51.4l3.5,10.4c0.5,0.2,0.8,0.4,1,0.6l-0.2,1.5h-4l-0.2-1.5c0.1-0.2,0.4-0.4,0.8-0.5l-0.5-1.5h-3.5l-0.4,1.5
			c0.4,0.2,0.7,0.4,0.9,0.6L72.2,64h-4L68,62.5c0.2-0.3,0.6-0.5,1.2-0.7l3.4-10.3L75,51.4L75,51.4z M73.6,53.9
			c0,0.7-0.1,1.6-0.4,2.6l-0.7,2.2H75l-0.7-2.2c-0.3-0.8-0.4-1.6-0.5-2.3v-0.3C73.8,53.9,73.6,53.9,73.6,53.9z"/>
		<path d="M84.3,59.6h-0.8v2.1c0.8,0.2,1.4,0.4,1.6,0.7l-0.2,1.5h-4.7L80,62.4c0.2-0.2,0.5-0.4,1-0.6v-8.2c-0.5-0.2-0.8-0.4-1-0.6
			l0.2-1.5h4.6c1.6,0,2.8,0.3,3.6,0.9s1.2,1.6,1.2,3.1C89.7,58.2,87.9,59.6,84.3,59.6z M84.6,53.5h-1v4.2h1.2c0.8,0,1.4-0.2,1.8-0.5
			c0.4-0.3,0.6-0.9,0.6-1.7c0-0.8-0.2-1.3-0.6-1.6S85.4,53.5,84.6,53.5z"/>
	</g>
	<g>
		<path class="st2" d="M34.1,66.9c-0.2,0-0.4,0.1-0.5,0.3c-0.1,0.2-0.2,0.5-0.2,0.9c0,0.8,0.2,1.2,0.7,1.2c0.2,0,0.3,0,0.5-0.1v-0.6
			c-0.1,0-0.3-0.1-0.3-0.2V68h1.1v0.4c0,0.1-0.1,0.1-0.2,0.2v0.9c-0.2,0.1-0.3,0.2-0.5,0.2s-0.4,0.1-0.7,0.1c-0.5,0-0.8-0.1-1-0.4
			s-0.3-0.7-0.3-1.3s0.1-1.1,0.4-1.4s0.6-0.4,1.1-0.4c0.4,0,0.8,0.1,1.1,0.3v0.1c0,0,0,0.2,0,0.3c0,0.1-0.1,0.2-0.1,0.3h-0.4
			c0-0.1-0.1-0.2-0.1-0.4C34.5,66.9,34.3,66.9,34.1,66.9z"/>
		<path class="st2" d="M37.8,69.8c-0.4,0-0.7-0.1-0.9-0.3c-0.2-0.2-0.3-0.5-0.3-1s0.1-0.8,0.3-1c0.2-0.2,0.5-0.3,0.9-0.3
			s0.7,0.1,0.9,0.3c0.2,0.2,0.3,0.5,0.3,0.9s-0.1,0.8-0.3,1C38.5,69.7,38.2,69.8,37.8,69.8z M37.4,68.5c0,0.5,0.2,0.8,0.5,0.8
			c0.2,0,0.3-0.1,0.4-0.2s0.1-0.3,0.1-0.6c0-0.5-0.2-0.8-0.5-0.8c-0.2,0-0.3,0.1-0.3,0.2C37.4,68.1,37.4,68.3,37.4,68.5z"/>
		<path class="st2" d="M41.3,69.8c-0.4,0-0.7-0.1-0.9-0.3c-0.2-0.2-0.3-0.5-0.3-1s0.1-0.8,0.3-1c0.2-0.2,0.5-0.3,0.9-0.3
			s0.7,0.1,0.9,0.3c0.2,0.2,0.3,0.5,0.3,0.9s-0.1,0.8-0.3,1C42,69.7,41.7,69.8,41.3,69.8z M40.9,68.5c0,0.5,0.2,0.8,0.5,0.8
			c0.2,0,0.3-0.1,0.4-0.2s0.1-0.3,0.1-0.6c0-0.5-0.2-0.8-0.5-0.8c-0.2,0-0.3,0.1-0.3,0.2C41,68.1,40.9,68.3,40.9,68.5z"/>
		<path class="st2" d="M45,66.3c0.2,0,0.4-0.1,0.5-0.1s0.3,0,0.4,0v3c0.1,0,0.2,0,0.3,0.1v0.4c-0.2,0.1-0.4,0.2-0.7,0.2
			c0,0-0.1,0-0.1-0.1c0,0,0-0.1-0.1-0.1c-0.1,0.1-0.2,0.1-0.3,0.2S44.8,70,44.7,70c-0.3,0-0.6-0.1-0.8-0.3c-0.2-0.2-0.2-0.5-0.2-1
			s0.1-0.9,0.4-1.1c0.2-0.2,0.5-0.3,0.8-0.3c0.1,0,0.3,0,0.4,0v-0.5c-0.1,0-0.3-0.1-0.3-0.2L45,66.3z M44.9,69.3
			c0.2,0,0.3-0.1,0.4-0.2v-1.3c-0.1,0-0.3,0-0.4,0s-0.3,0.1-0.3,0.2c-0.1,0.1-0.1,0.3-0.1,0.6s0,0.5,0.1,0.6
			C44.6,69.3,44.7,69.3,44.9,69.3z"/>
		<path class="st2" d="M51.3,66.9c-0.1,0-0.2-0.1-0.4-0.1c-0.2,0-0.4,0.1-0.5,0.3c-0.1,0.2-0.2,0.5-0.2,0.9s0.1,0.7,0.2,0.9
			c0.1,0.2,0.3,0.3,0.5,0.3c0.3,0,0.7-0.1,0.9-0.2l0.2,0.4c-0.3,0.2-0.7,0.3-1.2,0.3s-0.8-0.1-1-0.4s-0.3-0.7-0.3-1.3
			c0-0.6,0.1-1.1,0.4-1.4s0.6-0.4,1.1-0.4c0.4,0,0.7,0.1,1.1,0.3v0.1c0,0,0,0.2,0,0.3S52,67.1,52,67.2h-0.5
			C51.4,67.3,51.3,67.1,51.3,66.9z"/>
		<path class="st2" d="M54.3,69.8c-0.4,0-0.7-0.1-0.9-0.3c-0.2-0.2-0.3-0.5-0.3-1s0.1-0.8,0.3-1c0.2-0.2,0.5-0.3,0.9-0.3
			s0.7,0.1,0.9,0.3c0.2,0.2,0.3,0.5,0.3,0.9s-0.1,0.8-0.3,1C55,69.7,54.7,69.8,54.3,69.8z M53.9,68.5c0,0.5,0.2,0.8,0.5,0.8
			c0.2,0,0.3-0.1,0.4-0.2s0.1-0.3,0.1-0.6c0-0.5-0.2-0.8-0.5-0.8c-0.2,0-0.3,0.1-0.3,0.2C53.9,68.1,53.9,68.3,53.9,68.5z"/>
		<path class="st2" d="M56.8,67.3c0.2,0,0.3-0.1,0.5-0.1c0.1,0,0.3,0,0.4,0v0.3c0.1-0.1,0.2-0.1,0.3-0.2s0.2-0.1,0.3-0.1
			c0.4,0,0.6,0.1,0.7,0.3c0.1-0.1,0.2-0.1,0.3-0.2c0.1-0.1,0.3-0.1,0.4-0.1c0.4,0,0.6,0.1,0.7,0.2c0.1,0.2,0.2,0.5,0.2,0.9v0.8
			c0.1,0,0.2,0.1,0.3,0.2v0.4h-1.1v-0.4c0-0.1,0.1-0.1,0.3-0.2v-1c0-0.2,0-0.3-0.1-0.4c0-0.1-0.1-0.1-0.3-0.1
			c-0.1,0-0.3,0.1-0.4,0.2c0,0.1,0,0.3,0,0.5v0.8c0.1,0,0.2,0.1,0.3,0.2v0.4h-1.1v-0.4c0-0.1,0.1-0.1,0.3-0.2v-1
			c0-0.2,0-0.3-0.1-0.4c0-0.1-0.1-0.1-0.3-0.1c-0.1,0-0.3,0.1-0.4,0.2v1.3c0.1,0,0.2,0.1,0.3,0.2v0.4h-1.1v-0.4
			c0-0.1,0.1-0.1,0.3-0.2v-1.4c-0.1,0-0.2-0.1-0.3-0.2L56.8,67.3z"/>
		<path class="st2" d="M62.2,67.2c0-0.3,0.1-0.6,0.2-0.8c0.1-0.2,0.4-0.3,0.7-0.3c0.3,0,0.6,0.1,0.8,0.3v0.1c0,0,0,0.1,0,0.2
			s-0.1,0.2-0.1,0.3h-0.4c-0.1-0.1-0.1-0.2-0.1-0.3h-0.1c-0.1,0-0.2,0-0.3,0.1c-0.1,0.1-0.1,0.2-0.1,0.4v0.2h0.7v0.5h-0.7v1.4
			c0.2,0,0.4,0.1,0.5,0.2v0.4H62v-0.4c0-0.1,0.1-0.1,0.3-0.2v-1.4h-0.2L62,67.6c0.1-0.1,0.2-0.1,0.3-0.1v-0.3H62.2z"/>
		<path class="st2" d="M65.9,69.8c-0.4,0-0.7-0.1-0.9-0.3c-0.2-0.2-0.3-0.5-0.3-1s0.1-0.8,0.3-1c0.2-0.2,0.5-0.3,0.9-0.3
			s0.7,0.1,0.9,0.3c0.2,0.2,0.3,0.5,0.3,0.9s-0.1,0.8-0.3,1C66.5,69.7,66.3,69.8,65.9,69.8z M65.4,68.5c0,0.5,0.2,0.8,0.5,0.8
			c0.2,0,0.3-0.1,0.4-0.2s0.1-0.3,0.1-0.6c0-0.5-0.2-0.8-0.5-0.8c-0.2,0-0.3,0.1-0.3,0.2C65.5,68.1,65.4,68.3,65.4,68.5z"/>
		<path class="st2" d="M69.7,67.9c-0.2,0-0.4,0-0.5,0.1v1.1c0.3,0,0.4,0.1,0.5,0.2v0.4h-1.4v-0.4c0-0.1,0.1-0.1,0.3-0.2v-1.4
			c-0.1,0-0.2-0.1-0.3-0.2v-0.4c0.2,0,0.3-0.1,0.5-0.1c0.1,0,0.3,0,0.4,0v0.3c0.1-0.1,0.2-0.2,0.3-0.2c0.1-0.1,0.2-0.1,0.3-0.1
			c0.1,0,0.2,0,0.2,0v0.6C69.9,67.9,69.8,67.9,69.7,67.9z"/>
		<path class="st2" d="M72,66.7v0.6h0.7v0.4H72V69c0,0.1,0,0.2,0,0.2s0.1,0.1,0.2,0.1s0.2,0,0.4-0.1l0.1,0.4
			c-0.2,0.1-0.5,0.2-0.8,0.2s-0.4-0.1-0.5-0.2s-0.1-0.3-0.1-0.5v-1.4h-0.2L71,67.4c0.1-0.1,0.2-0.1,0.3-0.2c0-0.3,0.1-0.5,0.3-0.6
			L72,66.7L72,66.7z"/>
		<path class="st2" d="M74,67.7c0,0,0-0.1,0-0.2c0.3-0.2,0.6-0.3,1-0.3c0.3,0,0.6,0.1,0.7,0.2c0.2,0.1,0.2,0.4,0.2,0.7v1.1
			c0.1,0,0.2,0.1,0.3,0.1v0.4c-0.2,0.1-0.4,0.1-0.7,0.1c0-0.1-0.1-0.2-0.1-0.3c-0.1,0.2-0.4,0.3-0.8,0.3c-0.2,0-0.4-0.1-0.6-0.2
			s-0.2-0.3-0.2-0.5s0.1-0.4,0.2-0.5s0.4-0.2,0.6-0.2h0.5v-0.2c0-0.3-0.1-0.4-0.4-0.4c-0.1,0-0.2,0-0.2,0c0,0.1,0,0.2-0.1,0.3h-0.5
			C74,68,74,67.9,74,67.7z M74.9,69.3c0.2,0,0.3,0,0.4-0.2v-0.4H75c-0.2,0-0.3,0.1-0.3,0.3c0,0.1,0,0.2,0.1,0.2
			C74.7,69.3,74.8,69.3,74.9,69.3z"/>
		<path class="st2" d="M77.3,66.3c0.2,0,0.3-0.1,0.5-0.1s0.3,0,0.4,0v1.3c0.1-0.1,0.2-0.1,0.3-0.1s0.2-0.1,0.3-0.1
			c0.4,0,0.6,0.1,0.7,0.3c0.1,0.2,0.2,0.5,0.2,1c0,0.3,0,0.5-0.1,0.6s-0.2,0.3-0.3,0.4c-0.2,0.2-0.5,0.3-0.8,0.3
			c-0.2,0-0.4-0.1-0.7-0.2c-0.1,0.1-0.1,0.1-0.2,0.1h-0.2v-3c-0.1,0-0.2-0.1-0.3-0.2L77.3,66.3z M78.6,69.3c0.3,0,0.5-0.3,0.5-0.8
			c0-0.3,0-0.5-0.1-0.6s-0.1-0.2-0.3-0.2c-0.2,0-0.4,0.1-0.5,0.2v1.3C78.3,69.3,78.4,69.3,78.6,69.3z"/>
		<path class="st2" d="M80.9,66.3c0.2,0,0.3-0.1,0.5-0.1s0.3,0,0.4,0v3c0.1,0,0.2,0.1,0.3,0.2v0.4H81v-0.4c0-0.1,0.1-0.1,0.3-0.2
			v-2.4c-0.1,0-0.2-0.1-0.3-0.2L80.9,66.3z"/>
		<path class="st2" d="M84.4,69.8c-0.4,0-0.7-0.1-0.9-0.3c-0.2-0.2-0.3-0.5-0.3-0.9c0-0.2,0-0.5,0.1-0.6c0.1-0.2,0.2-0.3,0.3-0.4
			c0.2-0.2,0.5-0.3,0.8-0.3s0.5,0.1,0.7,0.2s0.2,0.4,0.2,0.9c0,0.2-0.1,0.4-0.3,0.4h-1.1c0,0.2,0.1,0.4,0.2,0.4
			c0.1,0.1,0.2,0.1,0.4,0.1c0.1,0,0.2,0,0.3,0c0.1,0,0.2-0.1,0.2-0.1h0.1l0.1,0.4c0,0,0,0.1-0.1,0.1s-0.1,0.1-0.3,0.1
			C84.8,69.8,84.6,69.8,84.4,69.8z M84.7,68.3c0,0,0-0.1,0-0.2s0-0.1-0.1-0.2s-0.1-0.1-0.3-0.1s-0.2,0-0.3,0.1
			c-0.1,0.1-0.1,0.2-0.1,0.4L84.7,68.3z"/>
	</g>
	<path class="st1" d="M38.1,6.1c-0.4-0.2-1-0.6-1.9-0.6c-0.2,0-1.6,0-1.8,0.6c-0.2,0.5,0.5,1.3,1,1.6c0.7,0.6,1.2,0.4,1.4,0.9
		c0.2,0.4-0.2,0.7-0.4,1.6c-0.1,0.6-0.2,1.8,0.3,2.1s1.7-0.3,2.2-1.2c0.3-0.6,0.3-1,0.6-1.1c0.4-0.2,0.7,0.3,1.5,0.5s2,0.1,2.2-0.4
		s-0.4-1.3-0.8-1.7c-0.8-0.7-1.4-0.5-1.6-1s0.5-0.8,0.6-1.7C41.5,5,41.3,4,40.7,3.8c-0.7-0.2-1.6,0.8-1.9,1.1
		C38.5,5.2,38.3,5.7,38.1,6.1z"/>
	<path class="st1" d="M81.8,6.8c-0.1-0.4-0.4-1.1-1-1.7c-0.2-0.2-1.1-1.1-1.7-0.8c-0.5,0.3-0.5,1.3-0.4,1.8c0.1,0.9,0.6,1.2,0.4,1.6
		c-0.2,0.4-0.6,0.3-1.4,0.9c-0.5,0.3-1.4,1.2-1.2,1.7c0.2,0.6,1.4,0.9,2.4,0.7c0.6-0.2,0.9-0.5,1.2-0.4c0.4,0.1,0.3,0.7,0.7,1.4
		c0.4,0.7,1.3,1.4,1.9,1.2c0.5-0.2,0.6-1.2,0.6-1.8c-0.1-1-0.7-1.4-0.4-1.8c0.2-0.5,0.9-0.2,1.7-0.8c0.6-0.5,1.1-1.3,0.8-1.9
		c-0.3-0.6-1.6-0.5-2.1-0.5C82.7,6.5,82.2,6.7,81.8,6.8z"/>
	<path class="st1" d="M111.8,38.2c0.2-0.4,0.5-1.1,0.5-1.9c0-0.2-0.1-1.6-0.7-1.8c-0.5-0.2-1.3,0.6-1.6,1c-0.5,0.7-0.4,1.2-0.8,1.5
		c-0.4,0.2-0.7-0.2-1.6-0.3c-0.6-0.1-1.8-0.1-2.1,0.4s0.4,1.7,1.3,2.2c0.6,0.3,1,0.2,1.2,0.6s-0.3,0.7-0.5,1.5s0,2,0.5,2.2
		s1.3-0.4,1.7-0.9c0.6-0.8,0.5-1.5,0.9-1.6c0.5-0.2,0.8,0.5,1.7,0.6c0.8,0.1,1.7-0.2,1.9-0.8c0.2-0.7-0.8-1.5-1.2-1.8
		C112.7,38.5,112.2,38.3,111.8,38.2z"/>
	<path class="st1" d="M111.3,81.7c0.4-0.1,1.1-0.3,1.7-1c0.2-0.2,1.1-1.1,0.8-1.7c-0.3-0.5-1.3-0.5-1.8-0.4
		c-0.9,0.1-1.2,0.6-1.6,0.4c-0.4-0.2-0.3-0.6-0.8-1.4c-0.3-0.5-1.1-1.4-1.7-1.2c-0.6,0.2-0.9,1.4-0.7,2.4c0.2,0.6,0.5,0.9,0.4,1.2
		c-0.1,0.4-0.7,0.3-1.4,0.7c-0.7,0.4-1.4,1.3-1.2,1.9c0.2,0.5,1.2,0.7,1.8,0.6c1-0.1,1.4-0.7,1.8-0.4c0.5,0.2,0.2,0.9,0.8,1.7
		c0.5,0.6,1.3,1.1,1.9,0.9c0.7-0.3,0.6-1.6,0.5-2.1C111.6,82.5,111.4,82,111.3,81.7z"/>
	<path class="st1" d="M81.1,109.3c0.2-0.3,0.6-1,0.6-1.9c0-0.2,0-1.6-0.6-1.8c-0.5-0.2-1.3,0.5-1.6,0.9c-0.6,0.7-0.5,1.2-0.9,1.4
		s-0.7-0.2-1.6-0.4c-0.6-0.1-1.8-0.2-2.1,0.3c-0.3,0.5,0.3,1.7,1.2,2.2c0.5,0.3,1,0.3,1.1,0.6c0.2,0.4-0.3,0.7-0.6,1.5
		c-0.2,0.8-0.1,2,0.4,2.2s1.3-0.3,1.7-0.8c0.7-0.8,0.5-1.4,1-1.6c0.5-0.2,0.8,0.5,1.7,0.7c0.7,0.1,1.7-0.1,2-0.7
		c0.3-0.7-0.7-1.6-1.1-1.9C81.9,109.7,81.4,109.5,81.1,109.3z"/>
	<path class="st1" d="M39,109.8c0.4-0.1,1.1-0.4,1.7-1c0.2-0.2,1.1-1.1,0.8-1.7c-0.3-0.5-1.3-0.5-1.8-0.4c-0.9,0.1-1.2,0.6-1.6,0.4
		c-0.4-0.2-0.3-0.6-0.9-1.4c-0.3-0.5-1.2-1.4-1.7-1.2c-0.6,0.2-0.9,1.4-0.7,2.4c0.2,0.6,0.5,0.9,0.4,1.2c-0.1,0.4-0.7,0.3-1.4,0.7
		c-0.7,0.4-1.4,1.3-1.2,1.9c0.2,0.5,1.2,0.6,1.8,0.6c1-0.1,1.4-0.7,1.8-0.4c0.5,0.2,0.2,0.9,0.8,1.7c0.5,0.6,1.3,1.1,1.9,0.8
		s0.5-1.6,0.5-2.1C39.4,110.7,39.2,110.2,39,109.8z"/>
	<path class="st1" d="M8.9,81c0.4,0.2,1,0.5,1.9,0.5c0.2,0,1.6,0,1.8-0.6c0.2-0.5-0.6-1.3-1-1.6c-0.7-0.6-1.2-0.4-1.4-0.9
		c-0.2-0.4,0.2-0.7,0.4-1.6c0.1-0.6,0.2-1.8-0.3-2.1c-0.5-0.3-1.7,0.3-2.2,1.2c-0.3,0.6-0.3,1-0.6,1.2c-0.4,0.2-0.7-0.3-1.5-0.5
		s-2-0.1-2.2,0.5c-0.2,0.5,0.4,1.3,0.8,1.7c0.8,0.7,1.4,0.5,1.6,1c0.2,0.5-0.5,0.8-0.6,1.7c-0.1,0.7,0.1,1.7,0.7,1.9
		c0.7,0.2,1.6-0.8,1.8-1.1C8.5,81.8,8.8,81.3,8.9,81z"/>
	<path class="st3" d="M21.7,18.8c0.1-0.4,0.1-1.2-0.3-2c-0.1-0.2-0.6-1.4-1.3-1.4c-0.6,0-1,1-1.1,1.6c-0.2,0.9,0.1,1.3-0.2,1.7
		c-0.3,0.3-0.7,0.1-1.6,0.3c-0.6,0.1-1.7,0.6-1.8,1.2c-0.1,0.6,1,1.4,2,1.5c0.6,0.1,1-0.2,1.3,0.1s0,0.8,0.1,1.6s0.7,1.8,1.3,1.8
		s1-0.9,1.2-1.5c0.3-1-0.1-1.5,0.3-1.9c0.4-0.4,0.9,0.1,1.8-0.1c0.7-0.2,1.5-0.8,1.5-1.4c-0.1-0.7-1.3-1.1-1.8-1.2
		C22.6,18.8,22.1,18.8,21.7,18.8z"/>
	<path class="st3" d="M99.4,18.8c0.1-0.4,0.1-1.2-0.3-2c-0.1-0.2-0.6-1.4-1.3-1.4c-0.6,0-1,1-1.1,1.6c-0.2,0.9,0.1,1.3-0.2,1.7
		c-0.3,0.3-0.7,0.1-1.6,0.3c-0.6,0.1-1.7,0.6-1.8,1.2c-0.1,0.6,1,1.4,2,1.5c0.6,0.1,1-0.2,1.3,0.1s0,0.8,0.1,1.6s0.7,1.8,1.3,1.8
		s1-0.9,1.2-1.5c0.3-1-0.1-1.5,0.3-1.9c0.4-0.4,0.9,0.1,1.8-0.1c0.7-0.2,1.5-0.8,1.5-1.4c-0.1-0.7-1.3-1.1-1.8-1.2
		C100.3,18.8,99.8,18.8,99.4,18.8z"/>
	<path class="st3" d="M21.7,96.3c0.1-0.4,0.1-1.2-0.3-2c-0.1-0.2-0.6-1.4-1.3-1.4c-0.6,0-1,1-1.1,1.6c-0.2,0.9,0.1,1.3-0.2,1.7
		c-0.3,0.3-0.7,0.1-1.6,0.3c-0.6,0.1-1.7,0.6-1.8,1.2c-0.1,0.6,1,1.4,2,1.5c0.6,0.1,1-0.2,1.3,0.1s0,0.8,0.1,1.6s0.7,1.8,1.3,1.8
		s1-0.9,1.2-1.5c0.3-1-0.1-1.5,0.3-1.9c0.4-0.4,0.9,0.1,1.8-0.1c0.7-0.2,1.5-0.8,1.5-1.4c-0.1-0.7-1.3-1.1-1.8-1.2
		C22.6,96.2,22.1,96.2,21.7,96.3z"/>
	<path class="st3" d="M99.4,96.3c0.1-0.4,0.1-1.2-0.3-2c-0.1-0.2-0.6-1.4-1.3-1.4c-0.6,0-1,1-1.1,1.6c-0.2,0.9,0.1,1.3-0.2,1.7
		c-0.3,0.3-0.7,0.1-1.6,0.3c-0.6,0.1-1.7,0.6-1.8,1.2c-0.1,0.6,1,1.4,2,1.5c0.6,0.1,1-0.2,1.3,0.1s0,0.8,0.1,1.6s0.7,1.8,1.3,1.8
		s1-0.9,1.2-1.5c0.3-1-0.1-1.5,0.3-1.9c0.4-0.4,0.9,0.1,1.8-0.1c0.7-0.2,1.5-0.8,1.5-1.4c-0.1-0.7-1.3-1.1-1.8-1.2
		C100.3,96.2,99.8,96.2,99.4,96.3z"/>
	<path class="st3" d="M61.2,4.3c0.3-0.3,0.9-0.8,1.2-1.6c0.1-0.2,0.6-1.5,0.1-1.9c-0.4-0.4-1.4,0.1-1.9,0.3c-0.8,0.5-0.8,1-1.3,1
		S58.7,1.7,58,1.2c-0.5-0.3-1.6-0.8-2.1-0.4c-0.5,0.4-0.3,1.7,0.3,2.5c0.4,0.5,0.8,0.6,0.9,1c0,0.4-0.5,0.5-1,1.2s-0.8,1.8-0.4,2.2
		c0.4,0.4,1.3,0.1,1.9-0.2c0.9-0.5,1-1.2,1.5-1.1c0.5,0,0.5,0.7,1.4,1.2c0.7,0.4,1.7,0.5,2.1,0c0.5-0.6-0.1-1.7-0.4-2.1
		C61.8,4.9,61.4,4.5,61.2,4.3z"/>
	<path class="st3" d="M61.2,113.8c0.3-0.3,0.9-0.8,1.2-1.6c0.1-0.2,0.6-1.5,0.1-1.9c-0.4-0.4-1.4,0.1-1.9,0.3c-0.8,0.5-0.8,1-1.3,1
		s-0.6-0.4-1.3-0.9c-0.5-0.3-1.6-0.8-2.1-0.4c-0.5,0.4-0.3,1.7,0.3,2.5c0.4,0.5,0.8,0.6,0.9,1c0,0.4-0.5,0.5-1,1.2s-0.8,1.8-0.4,2.2
		s1.3,0.1,1.9-0.2c0.9-0.5,1-1.2,1.5-1.1c0.5,0,0.5,0.7,1.4,1.2c0.7,0.4,1.7,0.5,2.1,0c0.5-0.6-0.1-1.7-0.4-2.1
		C61.8,114.4,61.5,114,61.2,113.8z"/>
	<path class="st3" d="M116,59.2c0.3-0.3,0.9-0.8,1.2-1.6c0.1-0.2,0.6-1.5,0.1-1.9c-0.4-0.4-1.4,0.1-1.9,0.3c-0.8,0.5-0.8,1-1.3,1
		s-0.6-0.4-1.3-0.9c-0.5-0.3-1.6-0.8-2.1-0.4s-0.3,1.7,0.3,2.5c0.4,0.5,0.8,0.6,0.9,1c0,0.4-0.5,0.5-1,1.2s-0.8,1.8-0.4,2.2
		c0.4,0.4,1.3,0.1,1.9-0.2c0.9-0.5,1-1.2,1.5-1.1c0.5,0,0.5,0.7,1.4,1.2c0.7,0.4,1.7,0.5,2.1,0c0.5-0.6-0.1-1.7-0.4-2.1
		C116.7,59.8,116.3,59.4,116,59.2z"/>
	<path class="st3" d="M6.3,59.2c0.3-0.3,0.9-0.8,1.2-1.6c0.1-0.2,0.6-1.5,0.1-1.9c-0.4-0.4-1.4,0.1-1.9,0.3c-0.8,0.5-0.8,1-1.3,1
		s-0.6-0.4-1.3-0.9c-0.5-0.3-1.6-0.8-2.1-0.4s-0.3,1.7,0.3,2.5c0.4,0.5,0.8,0.6,0.9,1c0,0.4-0.5,0.5-1,1.2s-0.8,1.8-0.4,2.2
		c0.4,0.4,1.3,0.1,1.9-0.2c0.9-0.5,1-1.2,1.5-1.1c0.5,0,0.5,0.7,1.4,1.2c0.7,0.4,1.7,0.5,2.1,0c0.5-0.6-0.1-1.7-0.4-2.1
		C7,59.8,6.6,59.4,6.3,59.2z"/>
</g>
</svg>
