<svg width="480" height="479" viewBox="0 0 480 479" fill="none" xmlns="http://www.w3.org/2000/svg">
<path d="M120.189 190.966V206.169L113.757 206.754C112.588 206.169 112.004 204.415 111.419 202.076H99.1417V251.195C102.065 252.364 103.819 253.534 104.988 254.704L103.819 263.474H79.8487L78.6795 254.704C79.8487 253.534 81.6028 252.364 84.526 251.195V202.076H72.2487C71.6639 204.415 70.4947 205.585 69.9099 206.754L63.479 206.169V190.966H120.189Z" fill="#765789" stroke="#765789"/>
<path d="M153.513 190.381L173.975 251.195C176.898 252.365 178.652 253.534 179.821 254.703L178.652 263.475H154.682L153.513 254.703C154.097 253.534 155.851 252.365 158.19 251.78L155.267 243.009H134.804L132.466 251.78C134.804 252.949 136.558 254.119 137.728 255.288L136.558 264.059H113.173L112.004 255.288C113.173 253.534 115.511 252.365 119.019 251.195L138.897 190.966L153.513 190.381ZM145.328 205C145.328 209.093 144.743 214.356 142.989 220.203L138.897 233.068H153.513L149.42 220.203C147.667 215.526 147.082 210.847 146.497 206.754V205H145.328Z" fill="#765789" stroke="#765789"/>
<path d="M207.299 190.966C215.484 190.966 221.33 191.551 224.838 192.72C228.346 193.89 231.269 195.059 232.439 196.229C235.946 199.152 237.7 203.831 237.7 210.263C237.7 214.941 235.362 219.618 230.1 223.712C236.531 227.22 239.454 233.068 239.454 241.839C239.454 248.856 237.115 254.119 233.023 257.627C228.346 261.136 221.915 262.89 213.146 263.474H183.914L182.744 254.704C183.914 253.534 185.668 252.364 188.591 251.195V203.246C185.668 202.076 183.914 200.907 182.744 199.737L183.914 190.966H207.299ZM208.468 202.661H203.207V220.788H211.392C214.9 220.788 217.238 219.618 219.576 217.865C221.33 216.11 222.5 213.771 222.5 211.432C222.5 209.093 221.915 206.754 220.746 205.585C219.576 204.415 217.823 203.246 216.069 203.246C214.315 202.661 211.976 202.661 208.468 202.661ZM212.561 231.898H203.207V251.78H210.222C214.9 251.78 218.407 251.195 220.746 249.441C223.084 248.271 224.254 245.348 224.254 241.839C224.254 238.331 223.084 235.407 221.33 234.237C219.576 233.068 216.653 231.898 212.561 231.898Z" fill="#765789" stroke="#765789"/>
<path d="M300.256 190.966V206.169L293.825 206.754C292.656 206.169 292.071 204.415 291.487 202.076H279.209V251.195C282.132 252.364 283.886 253.534 285.055 254.704L283.886 263.474H259.332L258.162 254.704C259.332 253.534 261.086 252.364 264.009 251.195V202.076H251.731C251.147 204.415 249.977 205.585 249.393 206.754L242.962 206.169V190.966H300.256Z" fill="#765789" stroke="#765789"/>
<path d="M333.58 190.381L354.043 251.195C356.966 252.365 358.719 253.534 359.889 254.703L358.719 263.475H335.334L334.165 254.703C334.75 253.534 336.504 252.365 338.842 251.78L335.919 243.009H315.457L313.118 251.78C315.457 252.949 317.211 254.119 318.38 255.288L317.211 264.059H293.825L292.656 255.288C293.825 253.534 296.164 252.365 299.671 251.195L319.549 190.966L333.58 190.381ZM325.395 205C325.395 209.093 324.811 214.356 323.057 220.203L318.964 233.068H333.58L329.488 220.203C327.734 215.526 327.149 210.847 326.565 206.754V205H325.395Z" fill="#765789" stroke="#765789"/>
<path d="M387.951 238.331H383.274V250.61C387.951 251.78 391.459 252.949 392.628 254.704L391.459 263.474H363.981L362.812 254.704C363.981 253.534 365.735 252.364 368.658 251.195V203.246C365.735 202.076 363.981 200.907 362.812 199.737L363.981 190.966H390.874C400.228 190.966 407.244 192.72 411.921 196.229C416.599 199.737 418.936 205.585 418.936 214.356C419.521 230.144 408.999 238.331 387.951 238.331ZM389.705 202.661H383.859V227.22H390.874C395.552 227.22 399.059 226.051 401.398 224.297C403.736 222.542 404.906 219.034 404.906 214.356C404.906 209.678 403.736 206.754 401.398 205C399.059 203.246 394.382 202.661 389.705 202.661Z" fill="#765789" stroke="#765789"/>
<path d="M72.9554 289.942C71.6017 289.942 70.2479 290.619 69.571 291.973C68.8941 293.327 68.2172 295.358 68.2172 298.066C68.2172 303.482 69.571 306.19 72.9554 306.19C74.3092 306.19 74.9861 306.19 76.3399 305.513V301.451C75.663 301.451 74.3092 300.774 74.3092 300.097V297.389H81.755V300.097C81.755 300.774 81.0781 300.774 80.4012 301.451V307.544C79.0475 308.221 78.3706 308.898 77.0168 308.898C75.663 308.898 74.3092 309.575 72.2786 309.575C68.8941 309.575 66.8635 308.898 65.5097 306.867C64.1559 304.836 63.479 302.128 63.479 298.066C63.479 294.004 64.1559 290.619 66.1866 288.588C68.2172 286.556 70.2479 285.879 73.6323 285.879C76.3399 285.879 79.0475 286.556 81.0781 287.911V288.588C81.0781 288.588 81.0781 289.942 81.0781 290.619C81.0781 291.296 80.4012 291.973 80.4012 292.65H77.6937C77.6937 291.973 77.0168 291.296 77.0168 289.942C75.663 289.942 74.3092 289.942 72.9554 289.942Z" fill="#282828"/>
<path d="M98.0004 309.575C95.2928 309.575 93.2621 308.898 91.9084 307.544C90.5546 306.19 89.8777 304.159 89.8777 300.773C89.8777 297.388 90.5546 295.357 91.9084 294.003C93.2621 292.649 95.2928 291.972 98.0004 291.972C100.708 291.972 102.739 292.649 104.092 294.003C105.446 295.357 106.123 297.388 106.123 300.096C106.123 302.804 105.446 305.513 104.092 306.867C102.739 308.898 100.708 309.575 98.0004 309.575ZM95.2928 300.773C95.2928 304.159 96.6466 306.19 98.6772 306.19C100.031 306.19 100.708 305.513 101.384 304.836C102.061 304.159 102.062 302.804 102.062 300.773C102.062 297.388 100.708 295.357 98.6772 295.357C97.3235 295.357 96.6466 296.034 96.6466 296.711C95.2928 298.065 95.2928 299.419 95.2928 300.773Z" fill="#282828"/>
<path d="M121.691 309.575C118.983 309.575 116.953 308.898 115.599 307.544C114.245 306.19 113.568 304.159 113.568 300.773C113.568 297.388 114.245 295.357 115.599 294.003C116.953 292.649 118.983 291.972 121.691 291.972C124.399 291.972 126.429 292.649 127.783 294.003C129.137 295.357 129.814 297.388 129.814 300.096C129.814 302.804 129.137 305.513 127.783 306.867C126.429 308.898 124.399 309.575 121.691 309.575ZM118.983 300.773C118.983 304.159 120.337 306.19 122.368 306.19C123.722 306.19 124.399 305.513 125.075 304.836C125.752 304.159 125.752 302.804 125.752 300.773C125.752 297.388 124.399 295.357 122.368 295.357C121.014 295.357 120.337 296.034 120.337 296.711C119.66 298.065 118.983 299.419 118.983 300.773Z" fill="#282828"/>
<path d="M146.736 285.879C148.09 285.879 149.444 285.202 150.12 285.202C150.797 285.202 152.151 285.202 152.828 285.202V305.513C153.505 305.513 154.182 305.513 154.859 306.19V308.898C153.505 309.575 152.151 310.252 150.12 310.252C150.12 310.252 149.444 310.252 149.444 309.575C149.444 309.575 149.444 308.898 148.767 308.898C148.09 309.575 147.413 309.575 146.736 310.252C146.059 310.929 145.382 310.929 144.705 310.929C142.675 310.929 140.644 310.252 139.29 308.898C137.936 307.544 137.936 305.513 137.936 302.127C137.936 298.742 138.613 296.034 140.644 294.68C141.998 293.326 144.028 292.649 146.059 292.649C146.736 292.649 148.09 292.649 148.767 292.649V289.264C148.09 289.264 146.736 288.587 146.736 287.91V285.879ZM146.059 306.19C147.413 306.19 148.09 305.513 148.767 304.836V296.034C148.09 296.034 146.736 296.034 146.059 296.034C145.382 296.034 144.028 296.711 144.028 297.388C143.352 298.065 143.352 299.419 143.352 301.45C143.352 303.481 143.352 304.835 144.028 305.513C144.028 306.19 144.705 306.19 146.059 306.19Z" fill="#282828"/>
<path d="M189.38 289.941C188.703 289.941 188.026 289.264 186.672 289.264C185.318 289.264 183.964 289.941 183.288 291.295C182.611 292.649 181.934 294.68 181.934 297.388C181.934 300.096 182.611 302.127 183.288 303.482C183.964 304.836 185.318 305.513 186.672 305.513C188.703 305.513 191.41 304.836 192.764 304.159L194.118 306.867C192.087 308.221 189.38 308.898 185.995 308.898C182.611 308.898 180.58 308.221 179.226 306.19C177.872 304.159 177.196 301.45 177.196 297.388C177.196 293.326 177.873 289.941 179.903 287.91C181.934 285.879 183.964 285.202 187.349 285.202C190.056 285.202 192.087 285.879 194.795 287.233V287.91C194.795 287.91 194.795 289.264 194.795 289.941C194.795 290.618 194.118 291.295 194.118 291.972H190.733C190.056 292.649 189.38 291.295 189.38 289.941Z" fill="#282828"/>
<path d="M209.686 309.575C206.979 309.575 204.948 308.898 203.594 307.544C202.24 306.19 201.564 304.159 201.564 300.773C201.564 297.388 202.24 295.357 203.594 294.003C204.948 292.649 206.979 291.972 209.686 291.972C212.394 291.972 214.424 292.649 215.778 294.003C217.132 295.357 217.809 297.388 217.809 300.096C217.809 302.804 217.132 305.513 215.778 306.867C214.424 308.898 212.394 309.575 209.686 309.575ZM206.979 300.773C206.979 304.159 208.332 306.19 210.363 306.19C211.717 306.19 212.394 305.513 213.071 304.836C213.748 304.159 213.748 302.804 213.748 300.773C213.748 297.388 212.394 295.357 210.363 295.357C209.009 295.357 208.332 296.034 208.332 296.711C206.979 298.065 206.979 299.419 206.979 300.773Z" fill="#282828"/>
<path d="M226.608 292.649C227.962 292.649 228.639 291.972 229.993 291.972C230.67 291.972 232.024 291.972 232.7 291.972V294.003C233.377 293.326 234.054 293.326 234.731 292.649C235.408 291.972 236.085 291.972 236.762 291.972C239.469 291.972 240.823 292.649 241.5 294.003C242.177 293.326 242.854 293.326 243.531 292.649C244.208 291.972 245.561 291.972 246.238 291.972C248.946 291.972 250.3 292.649 250.976 293.326C251.653 294.68 252.33 296.711 252.33 299.419V304.836C253.007 304.836 253.684 305.513 254.361 306.19V308.898H246.915V306.19C246.915 305.513 247.592 305.513 248.946 304.836V298.065C248.946 296.711 248.946 296.034 248.269 295.357C248.269 294.68 247.592 294.68 246.238 294.68C245.561 294.68 244.208 295.357 243.531 296.034C243.531 296.711 243.531 298.065 243.531 299.419V304.836C244.208 304.836 244.884 305.513 245.561 306.19V308.898H238.116V306.19C238.116 305.513 238.792 305.513 240.146 304.836V298.065C240.146 296.711 240.146 296.034 239.469 295.357C239.469 294.68 238.792 294.68 237.439 294.68C236.762 294.68 235.408 295.357 234.731 296.034V304.836C235.408 304.836 236.085 305.513 236.762 306.19V308.898H229.316V306.19C229.316 305.513 229.993 305.513 231.347 304.836V295.357C230.67 295.357 229.993 294.68 229.316 294.003L226.608 292.649Z" fill="#282828"/>
<path d="M263.16 291.973C263.16 289.942 263.837 287.91 264.514 286.556C265.191 285.202 267.221 284.525 269.252 284.525C271.283 284.525 273.313 285.202 274.667 286.556V287.233C274.667 287.233 274.667 287.91 274.667 288.588C274.667 289.265 273.99 289.942 273.99 290.619H271.283C270.606 289.942 270.606 289.265 270.606 288.588H269.929C269.252 288.588 268.575 288.588 267.898 289.265C267.221 289.942 267.221 290.619 267.221 291.973V293.327H271.96V296.712H267.221V306.19C268.575 306.19 269.929 306.867 270.606 307.544V310.252H261.806V307.544C261.806 306.867 262.483 306.867 263.837 306.19V296.712H262.483L261.806 294.681C262.483 294.004 263.16 294.004 263.837 294.004V291.973H263.16Z" fill="#282828"/>
<path d="M288.205 309.575C285.497 309.575 283.467 308.898 282.113 307.544C280.759 306.19 280.082 304.159 280.082 300.773C280.082 297.388 280.759 295.357 282.113 294.003C283.467 292.649 285.497 291.972 288.205 291.972C290.912 291.972 292.943 292.649 294.297 294.003C295.651 295.357 296.328 297.388 296.328 300.096C296.328 302.804 295.651 305.513 294.297 306.867C292.266 308.898 290.912 309.575 288.205 309.575ZM284.821 300.773C284.821 304.159 286.174 306.19 288.205 306.19C289.559 306.19 290.236 305.513 290.912 304.836C291.589 304.159 291.589 302.804 291.589 300.773C291.589 297.388 290.236 295.357 288.205 295.357C286.851 295.357 286.174 296.034 286.174 296.711C285.497 298.065 284.821 299.419 284.821 300.773Z" fill="#282828"/>
<path d="M313.927 296.712C312.573 296.712 311.219 296.712 310.542 297.389V304.836C312.573 304.836 313.25 305.513 313.927 306.19V308.898H304.45V306.19C304.45 305.513 305.127 305.513 306.481 304.836V295.358C305.804 295.358 305.127 294.681 304.45 294.004V291.296C305.804 291.296 306.481 290.619 307.835 290.619C308.512 290.619 309.865 290.619 310.542 290.619V292.65C311.219 291.973 311.896 291.296 312.573 291.296C313.25 290.619 313.927 290.619 314.604 290.619C315.28 290.619 315.957 290.619 315.957 290.619V294.681C315.28 296.712 314.604 296.712 313.927 296.712Z" fill="#282828"/>
<path d="M329.495 288.588V292.65H334.233V295.358H329.495V304.159C329.495 304.836 329.495 305.513 329.495 305.513C329.495 305.513 330.172 306.19 330.849 306.19C331.526 306.19 332.203 306.19 333.557 305.513L334.233 308.221C332.88 308.898 330.849 309.575 328.818 309.575C326.788 309.575 326.111 308.898 325.434 308.221C324.757 307.544 324.757 306.19 324.757 304.836V295.358H323.403L322.726 293.327C323.403 292.65 324.08 292.65 324.757 291.973C324.757 289.942 325.434 288.588 326.788 287.911L329.495 288.588Z" fill="#282828"/>
<path d="M343.033 295.357C343.033 295.357 343.033 294.68 343.033 294.003C345.064 292.649 347.094 291.972 349.802 291.972C351.833 291.972 353.863 292.649 354.54 293.326C355.894 294.003 355.894 296.034 355.894 298.065V305.513C356.571 305.513 357.248 306.19 357.925 306.19V308.898C356.571 309.575 355.217 309.575 353.186 309.575C353.186 308.898 352.509 308.221 352.509 307.544C351.833 308.898 349.802 309.575 347.094 309.575C345.741 309.575 344.387 308.898 343.033 308.221C341.679 307.544 341.679 306.19 341.679 304.836C341.679 303.482 342.356 302.127 343.033 301.45C343.71 300.773 345.741 300.096 347.094 300.096H350.479V298.742C350.479 296.711 349.802 296.034 347.771 296.034C347.094 296.034 346.417 296.034 346.417 296.034C346.417 296.711 346.417 297.388 345.741 298.065H342.356C343.033 297.388 343.033 296.711 343.033 295.357ZM349.125 306.19C350.479 306.19 351.156 306.19 351.833 304.836V302.127H349.802C348.448 302.127 347.771 302.804 347.771 304.159C347.771 304.836 347.771 305.513 348.448 305.513C347.771 306.19 348.448 306.19 349.125 306.19Z" fill="#282828"/>
<path d="M365.37 285.879C366.724 285.879 367.401 285.202 368.755 285.202C370.109 285.202 370.785 285.202 371.462 285.202V294.003C372.139 293.326 372.816 293.326 373.493 293.326C374.17 293.326 374.847 292.649 375.524 292.649C378.231 292.649 379.585 293.326 380.262 294.68C380.938 296.034 381.615 298.065 381.615 301.45C381.615 303.482 381.615 304.836 380.938 305.513C380.261 306.19 379.585 307.544 378.908 308.221C377.554 309.575 375.523 310.252 373.493 310.252C372.139 310.252 370.785 309.575 368.755 308.898C368.078 309.575 368.078 309.575 367.401 309.575H366.047V289.264C365.37 289.264 364.693 288.587 364.017 287.91L365.37 285.879ZM374.17 306.19C376.2 306.19 377.554 304.159 377.554 300.773C377.554 298.742 377.554 297.388 376.877 296.711C376.2 296.034 376.2 295.357 374.846 295.357C373.493 295.357 372.139 296.034 371.462 296.711V305.513C372.139 306.19 372.816 306.19 374.17 306.19Z" fill="#282828"/>
<path d="M389.738 285.879C391.092 285.879 391.769 285.202 393.122 285.202C394.476 285.202 395.153 285.202 395.83 285.202V305.513C396.507 305.513 397.184 306.19 397.861 306.867V309.575H390.415V306.867C390.415 306.19 391.092 306.19 392.445 305.513V289.264C391.769 289.264 391.092 288.587 390.415 287.91L389.738 285.879Z" fill="#282828"/>
<path d="M413.427 309.575C410.722 309.575 408.692 308.898 407.338 307.544C405.983 306.19 405.306 304.159 405.306 301.451C405.306 300.097 405.306 298.066 405.983 297.389C406.66 296.035 407.338 295.358 408.013 294.681C409.368 293.327 411.398 292.65 413.427 292.65C415.461 292.65 416.812 293.327 418.166 294.004C419.521 294.681 419.521 296.712 419.521 300.097C419.521 301.451 418.846 302.805 417.491 302.805H410.043C410.043 304.159 410.722 305.513 411.398 305.513C412.077 306.19 412.752 306.19 414.107 306.19C414.782 306.19 415.461 306.19 416.137 306.19C416.812 306.19 417.491 305.513 417.491 305.513H418.166L418.846 308.221C418.846 308.221 418.846 308.898 418.166 308.898C417.491 308.898 417.491 309.575 416.137 309.575C416.137 309.575 414.782 309.575 413.427 309.575ZM415.461 299.42C415.461 299.42 415.461 298.743 415.461 298.066C415.461 297.389 415.461 297.389 414.782 296.712C414.107 296.035 414.107 296.035 412.752 296.035C411.398 296.035 411.398 296.035 410.722 296.712C410.043 297.389 410.043 298.066 410.043 299.42H415.461Z" fill="#282828"/>
<path d="M36.8022 142.202L36.9332 142.726L37.4453 142.555C37.8052 142.435 38.2248 142.285 38.7068 142.111C39.9136 141.677 41.5115 141.102 43.5436 140.521C44.5356 140.325 46.3098 140.131 47.9715 140.326C49.6728 140.527 51.046 141.106 51.5523 142.259C51.8919 143.305 51.6431 144.685 50.959 146.053C50.2765 147.419 49.2057 148.678 48.0594 149.443L48.048 149.451L48.0369 149.459C46.5125 150.602 45.0896 150.898 43.8748 151.151L43.8355 151.16C43.237 151.284 42.6346 151.41 42.1333 151.653C41.6073 151.909 41.1809 152.297 40.9232 152.928C40.4115 153.974 40.8352 155.01 41.2702 156.074L41.275 156.085C41.2927 156.129 41.3107 156.172 41.3287 156.216C41.7802 157.318 42.3301 158.66 42.5192 160.551L42.5208 160.567L42.5235 160.583C42.7146 161.73 42.6202 163.292 42.229 164.662C42.0341 165.344 41.7713 165.958 41.4496 166.44C41.1307 166.919 40.7721 167.242 40.389 167.399C39.9115 167.554 39.3415 167.524 38.6975 167.311C38.0477 167.096 37.354 166.705 36.6665 166.19C35.2894 165.157 34.0047 163.674 33.2197 162.3C32.5599 161.145 32.251 160.069 31.9809 159.128C31.9307 158.953 31.8818 158.783 31.8322 158.618C31.5349 157.626 31.1668 156.613 30.0421 156.332C29.0593 156.086 28.2151 156.346 27.3673 156.717C27.1004 156.834 26.8355 156.96 26.5619 157.09C25.9433 157.385 25.2803 157.7 24.4498 157.977C22.5103 158.557 20.364 158.461 18.6082 157.925C16.8397 157.384 15.6155 156.449 15.2661 155.468C15.1989 155 15.3143 154.456 15.6012 153.853C15.8945 153.237 16.3495 152.598 16.8935 151.98C17.9831 150.742 19.375 149.649 20.3564 149.06L20.3564 149.06L20.3642 149.055C21.7532 148.186 22.8297 147.777 23.7014 147.445C23.827 147.398 23.9484 147.351 24.0659 147.306C25.0029 146.941 25.7769 146.577 26.2757 145.58C26.8086 144.514 26.3661 143.572 25.9223 142.635C25.903 142.594 25.8835 142.553 25.8639 142.512C25.4165 141.57 24.8806 140.441 24.6915 138.779C24.6915 137.749 24.6948 136.17 24.94 134.747C25.0637 134.03 25.2446 133.381 25.501 132.873C25.7575 132.366 26.0656 132.046 26.4235 131.903L26.4428 131.895L26.4613 131.886C26.9324 131.651 27.4893 131.635 28.1181 131.801C28.7496 131.968 29.415 132.308 30.0565 132.727C31.3389 133.566 32.4324 134.658 32.8412 135.067L32.8413 135.068C35.6129 137.839 36.4022 140.602 36.8022 142.202Z" fill="#BEABCA" stroke="#765789"/>
<path d="M153.922 22.9688C152.285 22.1501 149.829 20.5128 146.146 20.5128C145.328 20.5128 139.598 20.5128 138.78 22.9688C137.961 25.0154 140.826 28.29 142.872 29.5179C145.737 31.9739 147.783 31.1552 148.602 33.2018C149.42 34.8391 147.783 36.0671 146.965 39.7509C146.555 42.2068 146.146 47.1186 148.192 48.3466C150.239 49.5746 155.15 47.1186 157.196 43.4348C158.424 40.9788 158.424 39.3415 159.651 38.9322C161.288 38.1137 162.516 40.1602 165.79 40.9788C169.064 41.7975 173.975 41.3881 174.793 39.3415C175.612 37.295 173.156 34.0205 171.519 32.3832C168.245 29.5179 165.79 30.3366 164.971 28.29C164.153 26.2433 167.018 25.0154 167.427 21.3315C167.836 18.4662 167.018 14.373 164.562 13.5544C161.697 12.7357 158.014 16.8289 156.787 18.0569C155.559 19.2849 154.74 21.3315 153.922 22.9688Z" fill="#BEABCA"/>
<path d="M153.922 22.9688C152.285 22.1501 149.829 20.5128 146.146 20.5128C145.328 20.5128 139.598 20.5128 138.78 22.9688C137.961 25.0154 140.826 28.29 142.872 29.5179C145.737 31.9739 147.783 31.1552 148.602 33.2018C149.42 34.8391 147.783 36.0671 146.965 39.7509C146.555 42.2068 146.146 47.1186 148.192 48.3466C150.239 49.5746 155.15 47.1186 157.196 43.4348C158.424 40.9788 158.424 39.3415 159.651 38.9322C161.288 38.1137 162.516 40.1602 165.79 40.9788C169.064 41.7975 173.975 41.3881 174.793 39.3415C175.612 37.295 173.156 34.0205 171.519 32.3832C168.245 29.5179 165.79 30.3366 164.971 28.29C164.153 26.2433 167.018 25.0154 167.427 21.3315C167.836 18.4662 167.018 14.373 164.562 13.5544C161.697 12.7357 158.014 16.8289 156.787 18.0569C155.559 19.2849 154.74 21.3315 153.922 22.9688Z" stroke="#BEABCA"/>
<path d="M153.922 22.9688C152.285 22.1501 149.829 20.5128 146.146 20.5128C145.328 20.5128 139.598 20.5128 138.78 22.9688C137.961 25.0154 140.826 28.29 142.872 29.5179C145.737 31.9739 147.783 31.1552 148.602 33.2018C149.42 34.8391 147.783 36.0671 146.965 39.7509C146.555 42.2068 146.146 47.1186 148.192 48.3466C150.239 49.5746 155.15 47.1186 157.196 43.4348C158.424 40.9788 158.424 39.3415 159.651 38.9322C161.288 38.1137 162.516 40.1602 165.79 40.9788C169.064 41.7975 173.975 41.3881 174.793 39.3415C175.612 37.295 173.156 34.0205 171.519 32.3832C168.245 29.5179 165.79 30.3366 164.971 28.29C164.153 26.2433 167.018 25.0154 167.427 21.3315C167.836 18.4662 167.018 14.373 164.562 13.5544C161.697 12.7357 158.014 16.8289 156.787 18.0569C155.559 19.2849 154.74 21.3315 153.922 22.9688Z" stroke="#765789"/>
<path d="M332.761 25.834C332.352 24.1968 331.124 21.3315 328.669 18.8756C327.851 18.0569 324.167 14.373 321.712 15.601C319.666 16.829 319.666 20.9222 320.075 22.9688C320.484 26.6527 322.53 27.8807 321.712 29.5179C320.893 31.1552 319.256 30.7459 315.982 33.2018C313.936 34.4298 310.253 38.1137 311.072 40.1602C311.89 42.6161 316.801 43.8441 320.893 43.0254C323.349 42.2068 324.577 40.9788 325.804 41.3882C327.441 41.7975 327.032 44.2534 328.669 47.1187C330.306 49.9839 333.989 52.8492 336.445 52.0305C338.491 51.2119 338.9 47.1187 338.9 44.6627C338.491 40.5695 336.035 38.9322 337.263 37.2951C338.082 35.2485 340.946 36.4764 344.22 34.0205C346.676 31.9739 348.722 28.6993 347.494 26.2434C346.266 23.7874 340.946 24.1968 338.9 24.1968C336.445 24.6061 334.398 25.4247 332.761 25.834Z" fill="#BEABCA"/>
<path d="M332.761 25.834C332.352 24.1968 331.124 21.3315 328.669 18.8756C327.851 18.0569 324.167 14.373 321.712 15.601C319.666 16.829 319.666 20.9222 320.075 22.9688C320.484 26.6527 322.53 27.8807 321.712 29.5179C320.893 31.1552 319.256 30.7459 315.982 33.2018C313.936 34.4298 310.253 38.1137 311.072 40.1602C311.89 42.6161 316.801 43.8441 320.893 43.0254C323.349 42.2068 324.577 40.9788 325.804 41.3882C327.441 41.7975 327.032 44.2534 328.669 47.1187C330.306 49.9839 333.989 52.8492 336.445 52.0305C338.491 51.2119 338.9 47.1187 338.9 44.6627C338.491 40.5695 336.035 38.9322 337.263 37.2951C338.082 35.2485 340.946 36.4764 344.22 34.0205C346.676 31.9739 348.722 28.6993 347.494 26.2434C346.266 23.7874 340.946 24.1968 338.9 24.1968C336.445 24.6061 334.398 25.4247 332.761 25.834Z" stroke="#BEABCA"/>
<path d="M332.761 25.834C332.352 24.1968 331.124 21.3315 328.669 18.8756C327.851 18.0569 324.167 14.373 321.712 15.601C319.666 16.829 319.666 20.9222 320.075 22.9688C320.484 26.6527 322.53 27.8807 321.712 29.5179C320.893 31.1552 319.256 30.7459 315.982 33.2018C313.936 34.4298 310.253 38.1137 311.072 40.1602C311.89 42.6161 316.801 43.8441 320.893 43.0254C323.349 42.2068 324.577 40.9788 325.804 41.3882C327.441 41.7975 327.032 44.2534 328.669 47.1187C330.306 49.9839 333.989 52.8492 336.445 52.0305C338.491 51.2119 338.9 47.1187 338.9 44.6627C338.491 40.5695 336.035 38.9322 337.263 37.2951C338.082 35.2485 340.946 36.4764 344.22 34.0205C346.676 31.9739 348.722 28.6993 347.494 26.2434C346.266 23.7874 340.946 24.1968 338.9 24.1968C336.445 24.6061 334.398 25.4247 332.761 25.834Z" stroke="#765789"/>
<path d="M455.535 154.361C456.353 152.724 457.581 149.859 457.581 146.584C457.581 145.765 457.172 140.035 454.716 139.216C452.67 138.398 449.396 141.672 448.168 143.309C446.122 146.175 446.531 148.221 444.894 149.449C443.257 150.268 442.03 148.631 438.346 148.221C435.891 147.812 430.98 147.812 429.752 149.859C428.525 151.905 431.389 156.817 435.072 158.864C437.528 160.092 439.165 159.682 439.983 161.32C440.802 162.957 438.756 164.185 437.937 167.459C437.119 170.734 437.937 175.646 439.983 176.464C442.03 177.283 445.304 174.827 446.94 172.781C449.396 169.506 448.987 166.641 450.624 166.231C452.67 165.413 453.898 168.278 457.581 168.687C460.855 169.097 464.538 167.869 465.356 165.413C466.175 162.547 462.083 159.273 460.446 158.045C459.218 155.589 457.172 154.77 455.535 154.361Z" fill="#BEABCA"/>
<path d="M455.535 154.361C456.353 152.724 457.581 149.859 457.581 146.584C457.581 145.765 457.172 140.035 454.716 139.216C452.67 138.398 449.396 141.672 448.168 143.309C446.122 146.175 446.531 148.221 444.894 149.449C443.257 150.268 442.03 148.631 438.346 148.221C435.891 147.812 430.98 147.812 429.752 149.859C428.525 151.905 431.389 156.817 435.072 158.864C437.528 160.092 439.165 159.682 439.983 161.32C440.802 162.957 438.756 164.185 437.937 167.459C437.119 170.734 437.937 175.646 439.983 176.464C442.03 177.283 445.304 174.827 446.94 172.781C449.396 169.506 448.987 166.641 450.624 166.231C452.67 165.413 453.898 168.278 457.581 168.687C460.855 169.097 464.538 167.869 465.356 165.413C466.175 162.547 462.083 159.273 460.446 158.045C459.218 155.589 457.172 154.77 455.535 154.361Z" stroke="#BEABCA"/>
<path d="M455.535 154.361C456.353 152.724 457.581 149.859 457.581 146.584C457.581 145.765 457.172 140.035 454.716 139.216C452.67 138.398 449.396 141.672 448.168 143.309C446.122 146.175 446.531 148.221 444.894 149.449C443.257 150.268 442.03 148.631 438.346 148.221C435.891 147.812 430.98 147.812 429.752 149.859C428.525 151.905 431.389 156.817 435.072 158.864C437.528 160.092 439.165 159.682 439.983 161.32C440.802 162.957 438.756 164.185 437.937 167.459C437.119 170.734 437.937 175.646 439.983 176.464C442.03 177.283 445.304 174.827 446.94 172.781C449.396 169.506 448.987 166.641 450.624 166.231C452.67 165.413 453.898 168.278 457.581 168.687C460.855 169.097 464.538 167.869 465.356 165.413C466.175 162.547 462.083 159.273 460.446 158.045C459.218 155.589 457.172 154.77 455.535 154.361Z" stroke="#765789"/>
<path d="M453.488 332.416C455.125 332.007 457.99 331.188 460.445 328.323C461.264 327.504 464.947 323.82 463.719 321.364C462.492 319.318 458.399 319.318 456.353 319.727C452.67 320.136 451.442 322.183 449.805 321.364C448.168 320.546 448.577 318.908 446.531 315.634C445.303 313.587 442.029 309.903 439.574 310.722C437.119 311.541 435.891 316.452 436.709 320.546C437.528 323.002 438.755 324.23 438.346 325.458C437.937 327.095 435.482 326.685 432.617 328.323C429.752 329.96 426.887 333.644 427.706 336.1C428.524 338.147 432.617 338.965 435.072 338.556C439.165 338.147 440.802 335.691 442.439 336.919C444.485 337.737 443.257 340.602 445.713 343.877C447.759 346.333 451.033 348.38 453.488 347.561C456.353 346.333 455.944 341.012 455.534 338.965C454.716 335.691 453.898 333.644 453.488 332.416Z" fill="#BEABCA"/>
<path d="M453.488 332.416C455.125 332.007 457.99 331.188 460.445 328.323C461.264 327.504 464.947 323.82 463.719 321.364C462.492 319.318 458.399 319.318 456.353 319.727C452.67 320.136 451.442 322.183 449.805 321.364C448.168 320.546 448.577 318.908 446.531 315.634C445.303 313.587 442.029 309.903 439.574 310.722C437.119 311.541 435.891 316.452 436.709 320.546C437.528 323.002 438.755 324.23 438.346 325.458C437.937 327.095 435.482 326.685 432.617 328.323C429.752 329.96 426.887 333.644 427.706 336.1C428.524 338.147 432.617 338.965 435.072 338.556C439.165 338.147 440.802 335.691 442.439 336.919C444.485 337.737 443.257 340.602 445.713 343.877C447.759 346.333 451.033 348.38 453.488 347.561C456.353 346.333 455.944 341.012 455.534 338.965C454.716 335.691 453.898 333.644 453.488 332.416Z" stroke="#BEABCA"/>
<path d="M453.488 332.416C455.125 332.007 457.99 331.188 460.445 328.323C461.264 327.504 464.947 323.82 463.719 321.364C462.492 319.318 458.399 319.318 456.353 319.727C452.67 320.136 451.442 322.183 449.805 321.364C448.168 320.546 448.577 318.908 446.531 315.634C445.303 313.587 442.029 309.903 439.574 310.722C437.119 311.541 435.891 316.452 436.709 320.546C437.528 323.002 438.755 324.23 438.346 325.458C437.937 327.095 435.482 326.685 432.617 328.323C429.752 329.96 426.887 333.644 427.706 336.1C428.524 338.147 432.617 338.965 435.072 338.556C439.165 338.147 440.802 335.691 442.439 336.919C444.485 337.737 443.257 340.602 445.713 343.877C447.759 346.333 451.033 348.38 453.488 347.561C456.353 346.333 455.944 341.012 455.534 338.965C454.716 335.691 453.898 333.644 453.488 332.416Z" stroke="#765789"/>
<path d="M329.897 445.389C330.715 444.161 332.352 441.296 332.352 437.612C332.352 436.793 332.352 431.063 329.897 430.244C327.85 429.425 324.576 432.291 323.349 433.928C320.893 436.793 321.302 438.84 319.665 439.659C318.029 440.477 316.801 438.84 313.118 438.021C310.662 437.612 305.751 437.203 304.523 439.249C303.296 441.296 305.751 446.208 309.434 448.254C311.481 449.482 313.527 449.482 313.936 450.71C314.755 452.348 312.708 453.575 311.481 456.85C310.662 460.125 311.071 465.037 313.118 465.855C315.164 466.674 318.438 464.627 320.075 462.581C322.939 459.306 322.121 456.85 324.167 456.031C326.213 455.213 327.441 458.078 331.124 458.897C333.989 459.306 338.081 458.487 339.309 456.031C340.537 453.166 336.444 449.482 334.808 448.254C333.171 447.026 331.124 446.208 329.897 445.389Z" fill="#BEABCA"/>
<path d="M329.897 445.389C330.715 444.161 332.352 441.296 332.352 437.612C332.352 436.793 332.352 431.063 329.897 430.244C327.85 429.425 324.576 432.291 323.349 433.928C320.893 436.793 321.302 438.84 319.665 439.659C318.029 440.477 316.801 438.84 313.118 438.021C310.662 437.612 305.751 437.203 304.523 439.249C303.296 441.296 305.751 446.208 309.434 448.254C311.481 449.482 313.527 449.482 313.936 450.71C314.755 452.348 312.708 453.575 311.481 456.85C310.662 460.125 311.071 465.037 313.118 465.855C315.164 466.674 318.438 464.627 320.075 462.581C322.939 459.306 322.121 456.85 324.167 456.031C326.213 455.213 327.441 458.078 331.124 458.897C333.989 459.306 338.081 458.487 339.309 456.031C340.537 453.166 336.444 449.482 334.808 448.254C333.171 447.026 331.124 446.208 329.897 445.389Z" stroke="#BEABCA"/>
<path d="M329.897 445.389C330.715 444.161 332.352 441.296 332.352 437.612C332.352 436.793 332.352 431.063 329.897 430.244C327.85 429.425 324.576 432.291 323.349 433.928C320.893 436.793 321.302 438.84 319.665 439.659C318.029 440.477 316.801 438.84 313.118 438.021C310.662 437.612 305.751 437.203 304.523 439.249C303.296 441.296 305.751 446.208 309.434 448.254C311.481 449.482 313.527 449.482 313.936 450.71C314.755 452.348 312.708 453.575 311.481 456.85C310.662 460.125 311.071 465.037 313.118 465.855C315.164 466.674 318.438 464.627 320.075 462.581C322.939 459.306 322.121 456.85 324.167 456.031C326.213 455.213 327.441 458.078 331.124 458.897C333.989 459.306 338.081 458.487 339.309 456.031C340.537 453.166 336.444 449.482 334.808 448.254C333.171 447.026 331.124 446.208 329.897 445.389Z" stroke="#765789"/>
<path d="M157.605 447.436C159.242 447.026 162.107 445.798 164.562 443.342C165.381 442.524 169.064 438.84 167.836 436.384C166.608 434.337 162.516 434.337 160.47 434.747C156.787 435.156 155.559 437.203 153.922 436.384C152.285 435.565 152.694 433.928 150.239 430.653C149.011 428.607 145.328 424.923 143.282 425.742C140.826 426.56 139.598 431.472 140.417 435.565C141.235 438.021 142.463 439.249 142.054 440.477C141.645 442.114 139.189 441.705 136.324 443.342C133.46 444.98 130.595 448.664 131.413 451.119C132.232 453.166 136.324 453.575 138.78 453.575C142.872 453.166 144.509 450.71 146.146 451.938C148.192 452.757 146.965 455.622 149.42 458.897C151.466 461.353 154.74 463.399 157.196 462.171C159.651 460.943 159.242 455.622 159.242 453.575C159.242 451.119 158.424 449.073 157.605 447.436Z" fill="#BEABCA"/>
<path d="M157.605 447.436C159.242 447.026 162.107 445.798 164.562 443.342C165.381 442.524 169.064 438.84 167.836 436.384C166.608 434.337 162.516 434.337 160.47 434.747C156.787 435.156 155.559 437.203 153.922 436.384C152.285 435.565 152.694 433.928 150.239 430.653C149.011 428.607 145.328 424.923 143.282 425.742C140.826 426.56 139.598 431.472 140.417 435.565C141.235 438.021 142.463 439.249 142.054 440.477C141.645 442.114 139.189 441.705 136.324 443.342C133.46 444.98 130.595 448.664 131.413 451.119C132.232 453.166 136.324 453.575 138.78 453.575C142.872 453.166 144.509 450.71 146.146 451.938C148.192 452.757 146.965 455.622 149.42 458.897C151.466 461.353 154.74 463.399 157.196 462.171C159.651 460.943 159.242 455.622 159.242 453.575C159.242 451.119 158.424 449.073 157.605 447.436Z" stroke="#BEABCA"/>
<path d="M157.605 447.436C159.242 447.026 162.107 445.798 164.562 443.342C165.381 442.524 169.064 438.84 167.836 436.384C166.608 434.337 162.516 434.337 160.47 434.747C156.787 435.156 155.559 437.203 153.922 436.384C152.285 435.565 152.694 433.928 150.239 430.653C149.011 428.607 145.328 424.923 143.282 425.742C140.826 426.56 139.598 431.472 140.417 435.565C141.235 438.021 142.463 439.249 142.054 440.477C141.645 442.114 139.189 441.705 136.324 443.342C133.46 444.98 130.595 448.664 131.413 451.119C132.232 453.166 136.324 453.575 138.78 453.575C142.872 453.166 144.509 450.71 146.146 451.938C148.192 452.757 146.965 455.622 149.42 458.897C151.466 461.353 154.74 463.399 157.196 462.171C159.651 460.943 159.242 455.622 159.242 453.575C159.242 451.119 158.424 449.073 157.605 447.436Z" stroke="#765789"/>
<path d="M34.4226 329.551C36.0595 330.369 38.5151 331.597 42.1982 331.597C43.0167 331.597 48.7461 331.597 49.5646 329.141C50.3831 327.095 47.1092 323.82 45.4722 322.592C42.6075 320.136 40.5613 320.955 39.7428 318.908C38.9243 317.271 40.5613 316.043 41.3798 312.359C41.789 309.903 42.1982 304.991 40.152 303.763C38.1058 302.536 33.1949 304.991 31.1487 308.675C29.9209 311.131 29.9209 312.769 28.6932 313.587C27.0562 314.406 25.8285 312.359 22.5545 311.541C19.2806 310.722 14.3697 311.131 13.5512 313.587C12.7327 315.634 15.1882 318.908 16.8251 320.546C20.0991 323.411 22.5545 322.592 23.373 324.639C24.1915 326.686 21.3268 327.914 20.9176 331.597C20.5083 334.463 21.3268 338.556 23.7823 339.375C26.647 340.193 30.3302 336.1 31.1487 334.872C32.7856 332.825 34.0133 330.779 34.4226 329.551Z" fill="#BEABCA"/>
<path d="M34.4226 329.551C36.0595 330.369 38.5151 331.597 42.1982 331.597C43.0167 331.597 48.7461 331.597 49.5646 329.141C50.3831 327.095 47.1092 323.82 45.4722 322.592C42.6075 320.136 40.5613 320.955 39.7428 318.908C38.9243 317.271 40.5613 316.043 41.3798 312.359C41.789 309.903 42.1982 304.991 40.152 303.763C38.1058 302.536 33.1949 304.991 31.1487 308.675C29.9209 311.131 29.9209 312.769 28.6932 313.587C27.0562 314.406 25.8285 312.359 22.5545 311.541C19.2806 310.722 14.3697 311.131 13.5512 313.587C12.7327 315.634 15.1882 318.908 16.8251 320.546C20.0991 323.411 22.5545 322.592 23.373 324.639C24.1915 326.686 21.3268 327.914 20.9176 331.597C20.5083 334.463 21.3268 338.556 23.7823 339.375C26.647 340.193 30.3302 336.1 31.1487 334.872C32.7856 332.825 34.0133 330.779 34.4226 329.551Z" stroke="#BEABCA"/>
<path d="M34.4226 329.551C36.0595 330.369 38.5151 331.597 42.1982 331.597C43.0167 331.597 48.7461 331.597 49.5646 329.141C50.3831 327.095 47.1092 323.82 45.4722 322.592C42.6075 320.136 40.5613 320.955 39.7428 318.908C38.9243 317.271 40.5613 316.043 41.3798 312.359C41.789 309.903 42.1982 304.991 40.152 303.763C38.1058 302.536 33.1949 304.991 31.1487 308.675C29.9209 311.131 29.9209 312.769 28.6932 313.587C27.0562 314.406 25.8285 312.359 22.5545 311.541C19.2806 310.722 14.3697 311.131 13.5512 313.587C12.7327 315.634 15.1882 318.908 16.8251 320.546C20.0991 323.411 22.5545 322.592 23.373 324.639C24.1915 326.686 21.3268 327.914 20.9176 331.597C20.5083 334.463 21.3268 338.556 23.7823 339.375C26.647 340.193 30.3302 336.1 31.1487 334.872C32.7856 332.825 34.0133 330.779 34.4226 329.551Z" stroke="#765789"/>
<path d="M86.806 74.9526C87.2152 73.3153 87.2152 70.0407 85.5782 66.7662C85.169 65.9475 83.1228 61.0356 80.2581 61.0356C77.8026 61.0356 76.1656 65.1289 75.7564 67.5848C74.9379 71.2687 76.1656 72.906 74.9379 74.5433C73.7101 75.7712 72.0732 74.9526 68.39 75.7712C65.9345 76.1806 61.4328 78.2272 61.0236 80.6831C60.6144 83.139 65.116 86.4136 69.2085 86.8229C71.6639 87.2323 73.3009 86.0043 74.5286 87.2323C75.7564 88.4602 74.5286 90.5068 74.9379 93.7814C75.3471 97.056 77.8026 101.149 80.2581 101.149C82.7135 101.149 84.3505 97.4653 85.169 95.0094C86.3967 90.9162 84.7597 88.8695 86.3967 87.2323C88.0337 85.595 90.0799 87.6416 93.7631 86.8229C96.6278 86.0043 99.9018 83.5484 99.9018 81.0924C99.4925 78.2272 94.5816 76.5899 92.5354 76.1806C90.4891 74.9526 88.4429 74.9526 86.806 74.9526Z" stroke="#BEABCA" stroke-width="0.5" stroke-miterlimit="10"/>
<path d="M86.806 74.9526C87.2152 73.3153 87.2152 70.0407 85.5782 66.7662C85.169 65.9475 83.1228 61.0356 80.2581 61.0356C77.8026 61.0356 76.1656 65.1289 75.7564 67.5848C74.9379 71.2687 76.1656 72.906 74.9379 74.5433C73.7101 75.7712 72.0732 74.9526 68.39 75.7712C65.9345 76.1806 61.4328 78.2272 61.0236 80.6831C60.6144 83.139 65.116 86.4136 69.2085 86.8229C71.6639 87.2323 73.3009 86.0043 74.5286 87.2323C75.7564 88.4602 74.5286 90.5068 74.9379 93.7814C75.3471 97.056 77.8026 101.149 80.2581 101.149C82.7135 101.149 84.3505 97.4653 85.169 95.0094C86.3967 90.9162 84.7597 88.8695 86.3967 87.2323C88.0337 85.595 90.0799 87.6416 93.7631 86.8229C96.6278 86.0043 99.9018 83.5484 99.9018 81.0924C99.4925 78.2272 94.5816 76.5899 92.5354 76.1806C90.4891 74.9526 88.4429 74.9526 86.806 74.9526Z" stroke="#765789" stroke-width="0.5" stroke-miterlimit="10"/>
<path d="M404.788 74.9526C405.197 73.3153 405.197 70.0407 403.56 66.7662C403.151 65.9475 401.105 61.0356 398.24 61.0356C395.785 61.0356 394.148 65.1289 393.739 67.5848C392.92 71.2687 394.148 72.906 392.92 74.5433C391.692 75.7712 390.055 74.9526 386.372 75.7712C383.917 76.1806 379.415 78.2272 379.006 80.6831C378.597 83.139 383.098 86.4136 387.191 86.8229C389.646 87.2323 391.283 86.0043 392.511 87.2323C393.739 88.4602 392.511 90.5068 392.92 93.7814C393.329 97.056 395.785 101.149 398.24 101.149C400.696 101.149 402.333 97.4653 403.151 95.0094C404.379 90.9162 402.742 88.8695 404.379 87.2323C406.016 85.595 408.062 87.6416 411.745 86.8229C414.61 86.0043 417.884 83.5484 417.884 81.0924C417.475 78.2272 412.564 76.5899 410.518 76.1806C408.471 74.9526 406.425 74.9526 404.788 74.9526Z" stroke="#BEABCA" stroke-width="0.5" stroke-miterlimit="10"/>
<path d="M404.788 74.9526C405.197 73.3153 405.197 70.0407 403.56 66.7662C403.151 65.9475 401.105 61.0356 398.24 61.0356C395.785 61.0356 394.148 65.1289 393.739 67.5848C392.92 71.2687 394.148 72.906 392.92 74.5433C391.692 75.7712 390.055 74.9526 386.372 75.7712C383.917 76.1806 379.415 78.2272 379.006 80.6831C378.597 83.139 383.098 86.4136 387.191 86.8229C389.646 87.2323 391.283 86.0043 392.511 87.2323C393.739 88.4602 392.511 90.5068 392.92 93.7814C393.329 97.056 395.785 101.149 398.24 101.149C400.696 101.149 402.333 97.4653 403.151 95.0094C404.379 90.9162 402.742 88.8695 404.379 87.2323C406.016 85.595 408.062 87.6416 411.745 86.8229C414.61 86.0043 417.884 83.5484 417.884 81.0924C417.475 78.2272 412.564 76.5899 410.518 76.1806C408.471 74.9526 406.425 74.9526 404.788 74.9526Z" stroke="#765789" stroke-width="0.5" stroke-miterlimit="10"/>
<path d="M86.806 392.177C87.2152 390.54 87.2152 387.265 85.5782 383.991C85.169 383.172 83.1228 378.26 80.2581 378.26C77.8026 378.26 76.1656 382.353 75.7564 384.809C74.9379 388.493 76.1656 390.131 74.9379 391.768C73.7101 392.996 72.0732 392.177 68.39 392.996C65.9345 393.405 61.4328 395.452 61.0236 397.908C60.6144 400.364 65.116 403.638 69.2085 404.047C71.6639 404.457 73.3009 403.229 74.5286 404.457C75.7564 405.685 74.5286 407.731 74.9379 411.006C75.3471 414.281 77.8026 418.374 80.2581 418.374C82.7135 418.374 84.3505 414.69 85.169 412.234C86.3967 408.141 84.7597 406.094 86.3967 404.457C88.0337 402.82 90.0799 404.866 93.7631 404.047C96.6278 403.229 99.9018 400.773 99.9018 398.317C99.4925 395.452 94.5816 393.814 92.5354 393.405C90.4891 391.768 88.4429 391.768 86.806 392.177Z" stroke="#BEABCA" stroke-width="0.5" stroke-miterlimit="10"/>
<path d="M86.806 392.177C87.2152 390.54 87.2152 387.265 85.5782 383.991C85.169 383.172 83.1228 378.26 80.2581 378.26C77.8026 378.26 76.1656 382.353 75.7564 384.809C74.9379 388.493 76.1656 390.131 74.9379 391.768C73.7101 392.996 72.0732 392.177 68.39 392.996C65.9345 393.405 61.4328 395.452 61.0236 397.908C60.6144 400.364 65.116 403.638 69.2085 404.047C71.6639 404.457 73.3009 403.229 74.5286 404.457C75.7564 405.685 74.5286 407.731 74.9379 411.006C75.3471 414.281 77.8026 418.374 80.2581 418.374C82.7135 418.374 84.3505 414.69 85.169 412.234C86.3967 408.141 84.7597 406.094 86.3967 404.457C88.0337 402.82 90.0799 404.866 93.7631 404.047C96.6278 403.229 99.9018 400.773 99.9018 398.317C99.4925 395.452 94.5816 393.814 92.5354 393.405C90.4891 391.768 88.4429 391.768 86.806 392.177Z" stroke="#765789" stroke-width="0.5" stroke-miterlimit="10"/>
<path d="M404.788 392.177C405.197 390.54 405.197 387.265 403.56 383.991C403.151 383.172 401.105 378.26 398.24 378.26C395.785 378.26 394.148 382.353 393.739 384.809C392.92 388.493 394.148 390.131 392.92 391.768C391.692 392.996 390.055 392.177 386.372 392.996C383.917 393.405 379.415 395.452 379.006 397.908C378.597 400.364 383.098 403.638 387.191 404.047C389.646 404.457 391.283 403.229 392.511 404.457C393.739 405.685 392.511 407.731 392.92 411.006C393.329 414.281 395.785 418.374 398.24 418.374C400.696 418.374 402.333 414.69 403.151 412.234C404.379 408.141 402.742 406.094 404.379 404.457C406.016 402.82 408.062 404.866 411.745 404.047C414.61 403.229 417.884 400.773 417.884 398.317C417.475 395.452 412.564 393.814 410.518 393.405C408.471 391.768 406.425 391.768 404.788 392.177Z" stroke="#BEABCA" stroke-width="0.5" stroke-miterlimit="10"/>
<path d="M404.788 392.177C405.197 390.54 405.197 387.265 403.56 383.991C403.151 383.172 401.105 378.26 398.24 378.26C395.785 378.26 394.148 382.353 393.739 384.809C392.92 388.493 394.148 390.131 392.92 391.768C391.692 392.996 390.055 392.177 386.372 392.996C383.917 393.405 379.415 395.452 379.006 397.908C378.597 400.364 383.098 403.638 387.191 404.047C389.646 404.457 391.283 403.229 392.511 404.457C393.739 405.685 392.511 407.731 392.92 411.006C393.329 414.281 395.785 418.374 398.24 418.374C400.696 418.374 402.333 414.69 403.151 412.234C404.379 408.141 402.742 406.094 404.379 404.457C406.016 402.82 408.062 404.866 411.745 404.047C414.61 403.229 417.884 400.773 417.884 398.317C417.475 395.452 412.564 393.814 410.518 393.405C408.471 391.768 406.425 391.768 404.788 392.177Z" stroke="#765789" stroke-width="0.5" stroke-miterlimit="10"/>
<path d="M248.457 15.601C249.685 14.373 252.14 12.3264 253.368 9.0518C253.777 8.23316 255.824 2.91197 253.777 1.2747C252.14 -0.362591 248.048 1.68402 246.002 2.50265C242.728 4.54926 242.728 6.59587 240.682 6.59587C238.635 6.59587 238.226 4.95858 235.361 2.91197C233.315 1.68402 228.813 -0.362591 226.767 1.2747C224.721 2.91197 225.54 8.23316 227.995 11.5077C229.632 13.5543 231.269 13.9637 231.678 15.601C231.678 17.2382 229.632 17.6476 227.586 20.5128C225.54 23.3781 224.312 27.8806 225.949 29.5179C227.586 31.1552 231.269 29.9272 233.724 28.6993C237.408 26.6527 237.817 23.7874 239.863 24.1967C241.909 24.1967 241.909 27.062 245.592 29.1086C248.457 30.7459 252.55 31.1552 254.187 29.1086C256.233 26.6527 253.777 22.1501 252.55 20.5128C250.913 18.0569 249.276 16.4196 248.457 15.601Z" stroke="#BEABCA" stroke-width="0.5" stroke-miterlimit="10"/>
<path d="M248.457 15.601C249.685 14.373 252.14 12.3264 253.368 9.0518C253.777 8.23316 255.824 2.91197 253.777 1.2747C252.14 -0.362591 248.048 1.68402 246.002 2.50265C242.728 4.54926 242.728 6.59587 240.682 6.59587C238.635 6.59587 238.226 4.95858 235.361 2.91197C233.315 1.68402 228.813 -0.362591 226.767 1.2747C224.721 2.91197 225.54 8.23316 227.995 11.5077C229.632 13.5543 231.269 13.9637 231.678 15.601C231.678 17.2382 229.632 17.6476 227.586 20.5128C225.54 23.3781 224.312 27.8806 225.949 29.5179C227.586 31.1552 231.269 29.9272 233.724 28.6993C237.408 26.6527 237.817 23.7874 239.863 24.1967C241.909 24.1967 241.909 27.062 245.592 29.1086C248.457 30.7459 252.55 31.1552 254.187 29.1086C256.233 26.6527 253.777 22.1501 252.55 20.5128C250.913 18.0569 249.276 16.4196 248.457 15.601Z" stroke="#765789" stroke-width="0.5" stroke-miterlimit="10"/>
<path d="M248.457 463.809C249.685 462.581 252.14 460.534 253.368 457.259C253.777 456.441 255.824 451.12 253.777 449.482C252.14 447.845 248.048 449.892 246.002 450.71C242.728 452.757 242.728 454.803 240.682 454.803C238.635 454.803 238.226 453.166 235.361 451.12C233.315 449.892 228.813 447.845 226.767 449.482C224.721 451.12 225.54 456.441 227.995 459.715C229.632 461.762 231.269 462.171 231.678 463.809C231.678 465.446 229.632 465.855 227.586 468.72C225.54 471.586 224.312 476.088 225.949 477.725C227.586 479.363 231.269 478.135 233.724 476.907C237.408 474.86 237.817 471.995 239.863 472.404C241.909 472.404 241.909 475.27 245.592 477.316C248.457 478.953 252.55 479.363 254.187 477.316C256.233 474.86 253.777 470.358 252.55 468.72C250.913 466.264 249.685 464.627 248.457 463.809Z" stroke="#BEABCA" stroke-width="0.5" stroke-miterlimit="10"/>
<path d="M248.457 463.809C249.685 462.581 252.14 460.534 253.368 457.259C253.777 456.441 255.824 451.12 253.777 449.482C252.14 447.845 248.048 449.892 246.002 450.71C242.728 452.757 242.728 454.803 240.682 454.803C238.635 454.803 238.226 453.166 235.361 451.12C233.315 449.892 228.813 447.845 226.767 449.482C224.721 451.12 225.54 456.441 227.995 459.715C229.632 461.762 231.269 462.171 231.678 463.809C231.678 465.446 229.632 465.855 227.586 468.72C225.54 471.586 224.312 476.088 225.949 477.725C227.586 479.363 231.269 478.135 233.724 476.907C237.408 474.86 237.817 471.995 239.863 472.404C241.909 472.404 241.909 475.27 245.592 477.316C248.457 478.953 252.55 479.363 254.187 477.316C256.233 474.86 253.777 470.358 252.55 468.72C250.913 466.264 249.685 464.627 248.457 463.809Z" stroke="#765789" stroke-width="0.5" stroke-miterlimit="10"/>
<path d="M472.723 240.319C473.951 239.091 476.406 237.044 477.634 233.769C478.043 232.951 480.089 227.63 478.043 225.992C476.406 224.355 472.314 226.402 470.267 227.22C466.993 229.267 466.993 231.314 464.947 231.314C462.901 231.314 462.492 229.676 459.627 227.63C457.581 226.402 453.079 224.355 451.033 225.992C448.987 227.63 449.805 232.951 452.261 236.225C453.898 238.272 455.535 238.681 455.944 240.319C455.944 241.956 453.898 242.365 451.851 245.23C449.805 248.096 448.577 252.598 450.214 254.236C451.851 255.873 455.535 254.645 457.99 253.417C461.673 251.37 462.082 248.505 464.129 248.914C466.175 248.914 466.175 251.78 469.858 253.826C472.723 255.464 476.815 255.873 478.452 253.826C480.498 251.37 478.043 246.868 476.815 245.23C475.587 242.775 473.951 241.137 472.723 240.319Z" stroke="#BEABCA" stroke-width="0.5" stroke-miterlimit="10"/>
<path d="M472.723 240.319C473.951 239.091 476.406 237.044 477.634 233.769C478.043 232.951 480.089 227.63 478.043 225.992C476.406 224.355 472.314 226.402 470.267 227.22C466.993 229.267 466.993 231.314 464.947 231.314C462.901 231.314 462.492 229.676 459.627 227.63C457.581 226.402 453.079 224.355 451.033 225.992C448.987 227.63 449.805 232.951 452.261 236.225C453.898 238.272 455.535 238.681 455.944 240.319C455.944 241.956 453.898 242.365 451.851 245.23C449.805 248.096 448.577 252.598 450.214 254.236C451.851 255.873 455.535 254.645 457.99 253.417C461.673 251.37 462.082 248.505 464.129 248.914C466.175 248.914 466.175 251.78 469.858 253.826C472.723 255.464 476.815 255.873 478.452 253.826C480.498 251.37 478.043 246.868 476.815 245.23C475.587 242.775 473.951 241.137 472.723 240.319Z" stroke="#765789" stroke-width="0.5" stroke-miterlimit="10"/>
<path d="M23.7823 240.319C25.01 239.091 27.4655 237.044 28.6932 233.769C29.1025 232.951 31.1487 227.63 29.1025 225.992C27.4655 224.355 23.3731 226.402 21.3268 227.22C18.0529 229.267 18.0529 231.314 16.0067 231.314C13.9605 231.314 13.5512 229.676 10.6865 227.63C8.64028 226.402 4.1386 224.355 2.09237 225.992C0.0461501 227.63 0.864638 232.951 3.32011 236.225C4.95709 238.272 6.59406 238.681 7.00331 240.319C7.00331 241.956 4.95709 242.365 2.91087 245.23C0.864642 248.096 -0.363089 252.598 1.27389 254.236C2.91087 255.873 6.59406 254.645 9.04953 253.417C12.7327 251.37 13.142 248.505 15.1882 248.914C17.2344 248.914 17.2344 251.78 20.9176 253.826C23.7823 255.464 27.8747 255.873 29.5117 253.826C31.5579 251.37 29.1025 246.868 27.8747 245.23C26.647 242.775 25.01 241.137 23.7823 240.319Z" stroke="#BEABCA" stroke-width="0.5" stroke-miterlimit="10"/>
<path d="M23.7823 240.319C25.01 239.091 27.4655 237.044 28.6932 233.769C29.1025 232.951 31.1487 227.63 29.1025 225.992C27.4655 224.355 23.3731 226.402 21.3268 227.22C18.0529 229.267 18.0529 231.314 16.0067 231.314C13.9605 231.314 13.5512 229.676 10.6865 227.63C8.64028 226.402 4.1386 224.355 2.09237 225.992C0.0461501 227.63 0.864638 232.951 3.32011 236.225C4.95709 238.272 6.59406 238.681 7.00331 240.319C7.00331 241.956 4.95709 242.365 2.91087 245.23C0.864642 248.096 -0.363089 252.598 1.27389 254.236C2.91087 255.873 6.59406 254.645 9.04953 253.417C12.7327 251.37 13.142 248.505 15.1882 248.914C17.2344 248.914 17.2344 251.78 20.9176 253.826C23.7823 255.464 27.8747 255.873 29.5117 253.826C31.5579 251.37 29.1025 246.868 27.8747 245.23C26.647 242.775 25.01 241.137 23.7823 240.319Z" stroke="#765789" stroke-width="0.5" stroke-miterlimit="10"/>
</svg>
