<?xml version="1.0" encoding="utf-8"?>
<!-- Generator: Adobe Illustrator 22.0.1, SVG Export Plug-In . SVG Version: 6.00 Build 0)  -->
<svg version="1.1" xmlns="http://www.w3.org/2000/svg" xmlns:xlink="http://www.w3.org/1999/xlink" x="0px" y="0px"
	 viewBox="0 0 200 200" style="enable-background:new 0 0 200 200;" xml:space="preserve">
<style type="text/css">
	.st0{display:none;}
	.st1{fill:#BEABCA;}
	.st2{fill:#282828;}
	.st3{fill:none;stroke:#BEABCA;stroke-width:0.5;stroke-miterlimit:10;}
</style>
<g id="레이어_2" class="st0">
	
		<image style="display:inline;overflow:visible;" width="1080" height="1080" xlink:href="tabtap.png"  transform="matrix(0.1339 0 0 0.1339 27.6943 27.6943)">
	</image>
</g>
<g id="레이어_3">
	<path class="st1" d="M51.3,76.9c-0.1-0.4-0.3-1.1-1-1.8c-0.2-0.2-1.1-1.1-1.7-0.8c-0.5,0.2-0.5,1.3-0.5,1.8
		c0.1,0.9,0.6,1.2,0.4,1.6c-0.2,0.4-0.6,0.3-1.4,0.8c-0.5,0.3-1.4,1.1-1.3,1.7c0.2,0.6,1.4,1,2.4,0.7c0.6-0.2,0.9-0.5,1.3-0.4
		c0.4,0.1,0.3,0.7,0.7,1.4c0.4,0.7,1.3,1.5,1.9,1.3c0.5-0.2,0.7-1.2,0.6-1.8c-0.1-1-0.6-1.4-0.4-1.8c0.2-0.5,0.9-0.2,1.7-0.8
		c0.6-0.4,1.1-1.3,0.9-1.9c-0.3-0.7-1.6-0.6-2.1-0.5C52.1,76.6,51.6,76.8,51.3,76.9z"/>
	<g>
		<path d="M80.2,93.2v2.6l-1.1,0.1c-0.2-0.1-0.3-0.4-0.4-0.8h-2.1v8.4c0.5,0.2,0.8,0.4,1,0.6l-0.2,1.5h-4.1l-0.2-1.5
			c0.2-0.2,0.5-0.4,1-0.6v-8.4h-2.1c-0.1,0.4-0.3,0.6-0.4,0.8l-1.1-0.1v-2.6H80.2z"/>
		<path d="M85.9,93.1l3.5,10.4c0.5,0.2,0.8,0.4,1,0.6l-0.2,1.5h-4.1l-0.2-1.5c0.1-0.2,0.4-0.4,0.8-0.5l-0.5-1.5h-3.5l-0.4,1.5
			c0.4,0.2,0.7,0.4,0.9,0.6l-0.2,1.5h-4l-0.2-1.5c0.2-0.3,0.6-0.5,1.2-0.7l3.4-10.3H85.9z M84.5,95.6c0,0.7-0.1,1.6-0.4,2.6
			l-0.7,2.2h2.5l-0.7-2.2c-0.3-0.8-0.4-1.6-0.5-2.3l0-0.3H84.5z"/>
		<path d="M95.1,93.2c1.4,0,2.4,0.1,3,0.3c0.6,0.2,1.1,0.4,1.3,0.6c0.6,0.5,0.9,1.3,0.9,2.4c0,0.8-0.4,1.6-1.3,2.3
			c1.1,0.6,1.6,1.6,1.6,3.1c0,1.2-0.4,2.1-1.1,2.7c-0.8,0.6-1.9,0.9-3.4,1h-5l-0.2-1.5c0.2-0.2,0.5-0.4,1-0.6v-8.2
			c-0.5-0.2-0.8-0.4-1-0.6l0.2-1.5H95.1z M95.3,95.2h-0.9v3.1h1.4c0.6,0,1-0.2,1.4-0.5c0.3-0.3,0.5-0.7,0.5-1.1c0-0.4-0.1-0.8-0.3-1
			c-0.2-0.2-0.5-0.4-0.8-0.4C96.3,95.2,95.9,95.2,95.3,95.2z M96,100.2h-1.6v3.4h1.2c0.8,0,1.4-0.1,1.8-0.4c0.4-0.2,0.6-0.7,0.6-1.3
			s-0.2-1.1-0.5-1.3C97.2,100.4,96.7,100.2,96,100.2z"/>
		<path d="M111,93.2v2.6l-1.1,0.1c-0.2-0.1-0.3-0.4-0.4-0.8h-2.1v8.4c0.5,0.2,0.8,0.4,1,0.6l-0.2,1.5H104l-0.2-1.5
			c0.2-0.2,0.5-0.4,1-0.6v-8.4h-2.1c-0.1,0.4-0.3,0.6-0.4,0.8l-1.1-0.1v-2.6H111z"/>
		<path d="M116.7,93.1l3.5,10.4c0.5,0.2,0.8,0.4,1,0.6l-0.2,1.5H117l-0.2-1.5c0.1-0.2,0.4-0.4,0.8-0.5l-0.5-1.5h-3.5l-0.4,1.5
			c0.4,0.2,0.7,0.4,0.9,0.6l-0.2,1.5h-4l-0.2-1.5c0.2-0.3,0.6-0.5,1.2-0.7l3.4-10.3H116.7z M115.3,95.6c0,0.7-0.1,1.6-0.4,2.6
			l-0.7,2.2h2.5l-0.7-2.2c-0.3-0.8-0.4-1.6-0.5-2.3l0-0.3H115.3z"/>
		<path d="M126,101.3h-0.8v2.1c0.8,0.2,1.4,0.4,1.6,0.7l-0.2,1.5h-4.7l-0.2-1.5c0.2-0.2,0.5-0.4,1-0.6v-8.2c-0.5-0.2-0.8-0.4-1-0.6
			l0.2-1.5h4.6c1.6,0,2.8,0.3,3.6,0.9c0.8,0.6,1.2,1.6,1.2,3.1C131.4,99.9,129.6,101.3,126,101.3z M126.3,95.2h-1v4.2h1.2
			c0.8,0,1.4-0.2,1.8-0.5c0.4-0.3,0.6-0.9,0.6-1.7c0-0.8-0.2-1.3-0.6-1.6S127.1,95.2,126.3,95.2z"/>
	</g>
	<g>
		<path class="st2" d="M75.8,108.6c-0.2,0-0.4,0.1-0.5,0.3c-0.1,0.2-0.2,0.5-0.2,0.9c0,0.8,0.2,1.2,0.7,1.2c0.2,0,0.3,0,0.5-0.1
			v-0.6c-0.1,0-0.3-0.1-0.3-0.2l0-0.4h1.1l0,0.4c0,0.1-0.1,0.1-0.2,0.2v0.9c-0.2,0.1-0.3,0.2-0.5,0.2c-0.2,0-0.4,0.1-0.7,0.1
			c-0.5,0-0.8-0.1-1-0.4s-0.3-0.7-0.3-1.3s0.1-1.1,0.4-1.4c0.3-0.3,0.6-0.4,1.1-0.4c0.4,0,0.8,0.1,1.1,0.3c0,0,0,0.1,0,0.1
			s0,0.2,0,0.3c0,0.1-0.1,0.2-0.1,0.3h-0.4c0-0.1-0.1-0.2-0.1-0.4C76.2,108.6,76,108.6,75.8,108.6z"/>
		<path class="st2" d="M79.5,111.5c-0.4,0-0.7-0.1-0.9-0.3c-0.2-0.2-0.3-0.5-0.3-1s0.1-0.8,0.3-1c0.2-0.2,0.5-0.3,0.9-0.3
			s0.7,0.1,0.9,0.3c0.2,0.2,0.3,0.5,0.3,0.9s-0.1,0.8-0.3,1C80.2,111.4,79.9,111.5,79.5,111.5z M79.1,110.2c0,0.5,0.2,0.8,0.5,0.8
			c0.2,0,0.3-0.1,0.4-0.2c0.1-0.1,0.1-0.3,0.1-0.6c0-0.5-0.2-0.8-0.5-0.8c-0.2,0-0.3,0.1-0.3,0.2C79.1,109.8,79.1,110,79.1,110.2z"
			/>
		<path class="st2" d="M83,111.5c-0.4,0-0.7-0.1-0.9-0.3c-0.2-0.2-0.3-0.5-0.3-1s0.1-0.8,0.3-1c0.2-0.2,0.5-0.3,0.9-0.3
			s0.7,0.1,0.9,0.3c0.2,0.2,0.3,0.5,0.3,0.9s-0.1,0.8-0.3,1C83.7,111.4,83.4,111.5,83,111.5z M82.6,110.2c0,0.5,0.2,0.8,0.5,0.8
			c0.2,0,0.3-0.1,0.4-0.2c0.1-0.1,0.1-0.3,0.1-0.6c0-0.5-0.2-0.8-0.5-0.8c-0.2,0-0.3,0.1-0.3,0.2C82.7,109.8,82.6,110,82.6,110.2z"
			/>
		<path class="st2" d="M86.7,108c0.2,0,0.4-0.1,0.5-0.1s0.3,0,0.4,0v3c0.1,0,0.2,0,0.3,0.1v0.4c-0.2,0.1-0.4,0.2-0.7,0.2
			c0,0-0.1,0-0.1-0.1c0,0,0-0.1-0.1-0.1c-0.1,0.1-0.2,0.1-0.3,0.2s-0.2,0.1-0.3,0.1c-0.3,0-0.6-0.1-0.8-0.3c-0.2-0.2-0.2-0.5-0.2-1
			c0-0.5,0.1-0.9,0.4-1.1c0.2-0.2,0.5-0.3,0.8-0.3c0.1,0,0.3,0,0.4,0v-0.5c-0.1,0-0.3-0.1-0.3-0.2L86.7,108z M86.6,111
			c0.2,0,0.3-0.1,0.4-0.2v-1.3c-0.1,0-0.3,0-0.4,0c-0.1,0-0.3,0.1-0.3,0.2c-0.1,0.1-0.1,0.3-0.1,0.6s0,0.5,0.1,0.6
			C86.3,111,86.4,111,86.6,111z"/>
		<path class="st2" d="M93,108.6c-0.1,0-0.2-0.1-0.4-0.1c-0.2,0-0.4,0.1-0.5,0.3c-0.1,0.2-0.2,0.5-0.2,0.9s0.1,0.7,0.2,0.9
			c0.1,0.2,0.3,0.3,0.5,0.3c0.3,0,0.7-0.1,0.9-0.2l0.2,0.4c-0.3,0.2-0.7,0.3-1.2,0.3c-0.5,0-0.8-0.1-1-0.4c-0.2-0.3-0.3-0.7-0.3-1.3
			c0-0.6,0.1-1.1,0.4-1.4c0.3-0.3,0.6-0.4,1.1-0.4c0.4,0,0.7,0.1,1.1,0.3c0,0,0,0.1,0,0.1s0,0.2,0,0.3s-0.1,0.2-0.1,0.3h-0.5
			C93.1,109,93,108.8,93,108.6z"/>
		<path class="st2" d="M96,111.5c-0.4,0-0.7-0.1-0.9-0.3c-0.2-0.2-0.3-0.5-0.3-1s0.1-0.8,0.3-1c0.2-0.2,0.5-0.3,0.9-0.3
			s0.7,0.1,0.9,0.3c0.2,0.2,0.3,0.5,0.3,0.9s-0.1,0.8-0.3,1C96.7,111.4,96.4,111.5,96,111.5z M95.6,110.2c0,0.5,0.2,0.8,0.5,0.8
			c0.2,0,0.3-0.1,0.4-0.2c0.1-0.1,0.1-0.3,0.1-0.6c0-0.5-0.2-0.8-0.5-0.8c-0.2,0-0.3,0.1-0.3,0.2C95.6,109.8,95.6,110,95.6,110.2z"
			/>
		<path class="st2" d="M98.5,109c0.2,0,0.3-0.1,0.5-0.1c0.1,0,0.3,0,0.4,0v0.3c0.1-0.1,0.2-0.1,0.3-0.2s0.2-0.1,0.3-0.1
			c0.4,0,0.6,0.1,0.7,0.3c0.1-0.1,0.2-0.1,0.3-0.2c0.1-0.1,0.3-0.1,0.4-0.1c0.4,0,0.6,0.1,0.7,0.2c0.1,0.2,0.2,0.5,0.2,0.9v0.8
			c0.1,0,0.2,0.1,0.3,0.2l0,0.4h-1.1l0-0.4c0-0.1,0.1-0.1,0.3-0.2v-1c0-0.2,0-0.3-0.1-0.4c0-0.1-0.1-0.1-0.3-0.1
			c-0.1,0-0.3,0.1-0.4,0.2c0,0.1,0,0.3,0,0.5v0.8c0.1,0,0.2,0.1,0.3,0.2l0,0.4h-1.1l0-0.4c0-0.1,0.1-0.1,0.3-0.2v-1
			c0-0.2,0-0.3-0.1-0.4c0-0.1-0.1-0.1-0.3-0.1c-0.1,0-0.3,0.1-0.4,0.2v1.3c0.1,0,0.2,0.1,0.3,0.2l0,0.4h-1.1l0-0.4
			c0-0.1,0.1-0.1,0.3-0.2v-1.4c-0.1,0-0.2-0.1-0.3-0.2L98.5,109z"/>
		<path class="st2" d="M103.9,108.9c0-0.3,0.1-0.6,0.2-0.8c0.1-0.2,0.4-0.3,0.7-0.3c0.3,0,0.6,0.1,0.8,0.3c0,0,0,0.1,0,0.1
			s0,0.1,0,0.2c0,0.1-0.1,0.2-0.1,0.3h-0.4c-0.1-0.1-0.1-0.2-0.1-0.3c0,0-0.1,0-0.1,0c-0.1,0-0.2,0-0.3,0.1
			c-0.1,0.1-0.1,0.2-0.1,0.4v0.2h0.7v0.5h-0.7v1.4c0.2,0,0.4,0.1,0.5,0.2l0,0.4h-1.3l0-0.4c0-0.1,0.1-0.1,0.3-0.2v-1.4h-0.2
			l-0.1-0.3c0.1-0.1,0.2-0.1,0.3-0.1V108.9z"/>
		<path class="st2" d="M107.6,111.5c-0.4,0-0.7-0.1-0.9-0.3c-0.2-0.2-0.3-0.5-0.3-1s0.1-0.8,0.3-1c0.2-0.2,0.5-0.3,0.9-0.3
			s0.7,0.1,0.9,0.3c0.2,0.2,0.3,0.5,0.3,0.9s-0.1,0.8-0.3,1C108.2,111.4,108,111.5,107.6,111.5z M107.1,110.2c0,0.5,0.2,0.8,0.5,0.8
			c0.2,0,0.3-0.1,0.4-0.2c0.1-0.1,0.1-0.3,0.1-0.6c0-0.5-0.2-0.8-0.5-0.8c-0.2,0-0.3,0.1-0.3,0.2C107.2,109.8,107.1,110,107.1,110.2
			z"/>
		<path class="st2" d="M111.4,109.6c-0.2,0-0.4,0-0.5,0.1v1.1c0.3,0,0.4,0.1,0.5,0.2l0,0.4H110l0-0.4c0-0.1,0.1-0.1,0.3-0.2v-1.4
			c-0.1,0-0.2-0.1-0.3-0.2l0-0.4c0.2,0,0.3-0.1,0.5-0.1c0.1,0,0.3,0,0.4,0v0.3c0.1-0.1,0.2-0.2,0.3-0.2c0.1-0.1,0.2-0.1,0.3-0.1
			c0.1,0,0.2,0,0.2,0l0,0.6C111.6,109.6,111.5,109.6,111.4,109.6z"/>
		<path class="st2" d="M113.7,108.4v0.6h0.7v0.4h-0.7v1.3c0,0.1,0,0.2,0,0.2c0,0,0.1,0.1,0.2,0.1c0.1,0,0.2,0,0.4-0.1l0.1,0.4
			c-0.2,0.1-0.5,0.2-0.8,0.2c-0.3,0-0.4-0.1-0.5-0.2c-0.1-0.1-0.1-0.3-0.1-0.5v-1.4h-0.2l-0.1-0.3c0.1-0.1,0.2-0.1,0.3-0.2
			c0-0.3,0.1-0.5,0.3-0.6H113.7z"/>
		<path class="st2" d="M115.7,109.4c0,0,0-0.1,0-0.2c0.3-0.2,0.6-0.3,1-0.3c0.3,0,0.6,0.1,0.7,0.2c0.2,0.1,0.2,0.4,0.2,0.7v1.1
			c0.1,0,0.2,0.1,0.3,0.1v0.4c-0.2,0.1-0.4,0.1-0.7,0.1c0-0.1-0.1-0.2-0.1-0.3c-0.1,0.2-0.4,0.3-0.8,0.3c-0.2,0-0.4-0.1-0.6-0.2
			s-0.2-0.3-0.2-0.5c0-0.2,0.1-0.4,0.2-0.5c0.1-0.1,0.4-0.2,0.6-0.2h0.5v-0.2c0-0.3-0.1-0.4-0.4-0.4c-0.1,0-0.2,0-0.2,0
			c0,0.1,0,0.2-0.1,0.3h-0.5C115.7,109.7,115.7,109.6,115.7,109.4z M116.6,111c0.2,0,0.3,0,0.4-0.2v-0.4h-0.3
			c-0.2,0-0.3,0.1-0.3,0.3c0,0.1,0,0.2,0.1,0.2C116.4,111,116.5,111,116.6,111z"/>
		<path class="st2" d="M119,108c0.2,0,0.3-0.1,0.5-0.1s0.3,0,0.4,0v1.3c0.1-0.1,0.2-0.1,0.3-0.1s0.2-0.1,0.3-0.1
			c0.4,0,0.6,0.1,0.7,0.3c0.1,0.2,0.2,0.5,0.2,1c0,0.3,0,0.5-0.1,0.6s-0.2,0.3-0.3,0.4c-0.2,0.2-0.5,0.3-0.8,0.3
			c-0.2,0-0.4-0.1-0.7-0.2c-0.1,0.1-0.1,0.1-0.2,0.1h-0.2v-3c-0.1,0-0.2-0.1-0.3-0.2L119,108z M120.3,111c0.3,0,0.5-0.3,0.5-0.8
			c0-0.3,0-0.5-0.1-0.6c-0.1-0.1-0.1-0.2-0.3-0.2c-0.2,0-0.4,0.1-0.5,0.2v1.3C120,111,120.1,111,120.3,111z"/>
		<path class="st2" d="M122.6,108c0.2,0,0.3-0.1,0.5-0.1s0.3,0,0.4,0v3c0.1,0,0.2,0.1,0.3,0.2l0,0.4h-1.1l0-0.4
			c0-0.1,0.1-0.1,0.3-0.2v-2.4c-0.1,0-0.2-0.1-0.3-0.2L122.6,108z"/>
		<path class="st2" d="M126.1,111.5c-0.4,0-0.7-0.1-0.9-0.3c-0.2-0.2-0.3-0.5-0.3-0.9c0-0.2,0-0.5,0.1-0.6c0.1-0.2,0.2-0.3,0.3-0.4
			c0.2-0.2,0.5-0.3,0.8-0.3s0.5,0.1,0.7,0.2s0.2,0.4,0.2,0.9c0,0.2-0.1,0.4-0.3,0.4h-1.1c0,0.2,0.1,0.4,0.2,0.4
			c0.1,0.1,0.2,0.1,0.4,0.1c0.1,0,0.2,0,0.3,0c0.1,0,0.2-0.1,0.2-0.1l0.1,0l0.1,0.4c0,0,0,0.1-0.1,0.1s-0.1,0.1-0.3,0.1
			C126.5,111.5,126.3,111.5,126.1,111.5z M126.4,110c0,0,0-0.1,0-0.2s0-0.1-0.1-0.2c-0.1-0.1-0.1-0.1-0.3-0.1s-0.2,0-0.3,0.1
			c-0.1,0.1-0.1,0.2-0.1,0.4L126.4,110z"/>
	</g>
	<path class="st1" d="M79.8,47.8c-0.4-0.2-1-0.6-1.9-0.6c-0.2,0-1.6,0-1.8,0.6c-0.2,0.5,0.5,1.3,1,1.6c0.7,0.6,1.2,0.4,1.4,0.9
		c0.2,0.4-0.2,0.7-0.4,1.6c-0.1,0.6-0.2,1.8,0.3,2.1c0.5,0.3,1.7-0.3,2.2-1.2c0.3-0.6,0.3-1,0.6-1.1c0.4-0.2,0.7,0.3,1.5,0.5
		c0.8,0.2,2,0.1,2.2-0.4c0.2-0.5-0.4-1.3-0.8-1.7c-0.8-0.7-1.4-0.5-1.6-1c-0.2-0.5,0.5-0.8,0.6-1.7c0.1-0.7-0.1-1.7-0.7-1.9
		c-0.7-0.2-1.6,0.8-1.9,1.1C80.2,46.9,80,47.4,79.8,47.8z"/>
	<path class="st1" d="M123.5,48.5c-0.1-0.4-0.4-1.1-1-1.7c-0.2-0.2-1.1-1.1-1.7-0.8c-0.5,0.3-0.5,1.3-0.4,1.8
		c0.1,0.9,0.6,1.2,0.4,1.6c-0.2,0.4-0.6,0.3-1.4,0.9c-0.5,0.3-1.4,1.2-1.2,1.7c0.2,0.6,1.4,0.9,2.4,0.7c0.6-0.2,0.9-0.5,1.2-0.4
		c0.4,0.1,0.3,0.7,0.7,1.4c0.4,0.7,1.3,1.4,1.9,1.2c0.5-0.2,0.6-1.2,0.6-1.8c-0.1-1-0.7-1.4-0.4-1.8c0.2-0.5,0.9-0.2,1.7-0.8
		c0.6-0.5,1.1-1.3,0.8-1.9c-0.3-0.6-1.6-0.5-2.1-0.5C124.4,48.2,123.9,48.4,123.5,48.5z"/>
	<path class="st1" d="M153.5,79.9c0.2-0.4,0.5-1.1,0.5-1.9c0-0.2-0.1-1.6-0.7-1.8c-0.5-0.2-1.3,0.6-1.6,1c-0.5,0.7-0.4,1.2-0.8,1.5
		c-0.4,0.2-0.7-0.2-1.6-0.3c-0.6-0.1-1.8-0.1-2.1,0.4c-0.3,0.5,0.4,1.7,1.3,2.2c0.6,0.3,1,0.2,1.2,0.6c0.2,0.4-0.3,0.7-0.5,1.5
		c-0.2,0.8,0,2,0.5,2.2c0.5,0.2,1.3-0.4,1.7-0.9c0.6-0.8,0.5-1.5,0.9-1.6c0.5-0.2,0.8,0.5,1.7,0.6c0.8,0.1,1.7-0.2,1.9-0.8
		c0.2-0.7-0.8-1.5-1.2-1.8C154.4,80.2,153.9,80,153.5,79.9z"/>
	<path class="st1" d="M153,123.4c0.4-0.1,1.1-0.3,1.7-1c0.2-0.2,1.1-1.1,0.8-1.7c-0.3-0.5-1.3-0.5-1.8-0.4c-0.9,0.1-1.2,0.6-1.6,0.4
		c-0.4-0.2-0.3-0.6-0.8-1.4c-0.3-0.5-1.1-1.4-1.7-1.2c-0.6,0.2-0.9,1.4-0.7,2.4c0.2,0.6,0.5,0.9,0.4,1.2c-0.1,0.4-0.7,0.3-1.4,0.7
		c-0.7,0.4-1.4,1.3-1.2,1.9c0.2,0.5,1.2,0.7,1.8,0.6c1-0.1,1.4-0.7,1.8-0.4c0.5,0.2,0.2,0.9,0.8,1.7c0.5,0.6,1.3,1.1,1.9,0.9
		c0.7-0.3,0.6-1.6,0.5-2.1C153.3,124.2,153.1,123.7,153,123.4z"/>
	<path class="st1" d="M122.8,151c0.2-0.3,0.6-1,0.6-1.9c0-0.2,0-1.6-0.6-1.8c-0.5-0.2-1.3,0.5-1.6,0.9c-0.6,0.7-0.5,1.2-0.9,1.4
		c-0.4,0.2-0.7-0.2-1.6-0.4c-0.6-0.1-1.8-0.2-2.1,0.3c-0.3,0.5,0.3,1.7,1.2,2.2c0.5,0.3,1,0.3,1.1,0.6c0.2,0.4-0.3,0.7-0.6,1.5
		c-0.2,0.8-0.1,2,0.4,2.2c0.5,0.2,1.3-0.3,1.7-0.8c0.7-0.8,0.5-1.4,1-1.6c0.5-0.2,0.8,0.5,1.7,0.7c0.7,0.1,1.7-0.1,2-0.7
		c0.3-0.7-0.7-1.6-1.1-1.9C123.6,151.4,123.1,151.2,122.8,151z"/>
	<path class="st1" d="M80.7,151.5c0.4-0.1,1.1-0.4,1.7-1c0.2-0.2,1.1-1.1,0.8-1.7c-0.3-0.5-1.3-0.5-1.8-0.4
		c-0.9,0.1-1.2,0.6-1.6,0.4c-0.4-0.2-0.3-0.6-0.9-1.4c-0.3-0.5-1.2-1.4-1.7-1.2c-0.6,0.2-0.9,1.4-0.7,2.4c0.2,0.6,0.5,0.9,0.4,1.2
		c-0.1,0.4-0.7,0.3-1.4,0.7c-0.7,0.4-1.4,1.3-1.2,1.9c0.2,0.5,1.2,0.6,1.8,0.6c1-0.1,1.4-0.7,1.8-0.4c0.5,0.2,0.2,0.9,0.8,1.7
		c0.5,0.6,1.3,1.1,1.9,0.8c0.6-0.3,0.5-1.6,0.5-2.1C81.1,152.4,80.9,151.9,80.7,151.5z"/>
	<path class="st1" d="M50.6,122.7c0.4,0.2,1,0.5,1.9,0.5c0.2,0,1.6,0,1.8-0.6c0.2-0.5-0.6-1.3-1-1.6c-0.7-0.6-1.2-0.4-1.4-0.9
		c-0.2-0.4,0.2-0.7,0.4-1.6c0.1-0.6,0.2-1.8-0.3-2.1c-0.5-0.3-1.7,0.3-2.2,1.2c-0.3,0.6-0.3,1-0.6,1.2c-0.4,0.2-0.7-0.3-1.5-0.5
		c-0.8-0.2-2-0.1-2.2,0.5c-0.2,0.5,0.4,1.3,0.8,1.7c0.8,0.7,1.4,0.5,1.6,1c0.2,0.5-0.5,0.8-0.6,1.7c-0.1,0.7,0.1,1.7,0.7,1.9
		c0.7,0.2,1.6-0.8,1.8-1.1C50.2,123.5,50.5,123,50.6,122.7z"/>
	<path class="st3" d="M63.4,60.5c0.1-0.4,0.1-1.2-0.3-2c-0.1-0.2-0.6-1.4-1.3-1.4c-0.6,0-1,1-1.1,1.6c-0.2,0.9,0.1,1.3-0.2,1.7
		c-0.3,0.3-0.7,0.1-1.6,0.3c-0.6,0.1-1.7,0.6-1.8,1.2c-0.1,0.6,1,1.4,2,1.5c0.6,0.1,1-0.2,1.3,0.1c0.3,0.3,0,0.8,0.1,1.6
		c0.1,0.8,0.7,1.8,1.3,1.8c0.6,0,1-0.9,1.2-1.5c0.3-1-0.1-1.5,0.3-1.9c0.4-0.4,0.9,0.1,1.8-0.1c0.7-0.2,1.5-0.8,1.5-1.4
		c-0.1-0.7-1.3-1.1-1.8-1.2C64.3,60.5,63.8,60.5,63.4,60.5z"/>
	<path class="st3" d="M141.1,60.5c0.1-0.4,0.1-1.2-0.3-2c-0.1-0.2-0.6-1.4-1.3-1.4c-0.6,0-1,1-1.1,1.6c-0.2,0.9,0.1,1.3-0.2,1.7
		c-0.3,0.3-0.7,0.1-1.6,0.3c-0.6,0.1-1.7,0.6-1.8,1.2c-0.1,0.6,1,1.4,2,1.5c0.6,0.1,1-0.2,1.3,0.1c0.3,0.3,0,0.8,0.1,1.6
		c0.1,0.8,0.7,1.8,1.3,1.8c0.6,0,1-0.9,1.2-1.5c0.3-1-0.1-1.5,0.3-1.9c0.4-0.4,0.9,0.1,1.8-0.1c0.7-0.2,1.5-0.8,1.5-1.4
		c-0.1-0.7-1.3-1.1-1.8-1.2C142,60.5,141.5,60.5,141.1,60.5z"/>
	<path class="st3" d="M63.4,138c0.1-0.4,0.1-1.2-0.3-2c-0.1-0.2-0.6-1.4-1.3-1.4c-0.6,0-1,1-1.1,1.6c-0.2,0.9,0.1,1.3-0.2,1.7
		c-0.3,0.3-0.7,0.1-1.6,0.3c-0.6,0.1-1.7,0.6-1.8,1.2c-0.1,0.6,1,1.4,2,1.5c0.6,0.1,1-0.2,1.3,0.1c0.3,0.3,0,0.8,0.1,1.6
		c0.1,0.8,0.7,1.8,1.3,1.8c0.6,0,1-0.9,1.2-1.5c0.3-1-0.1-1.5,0.3-1.9c0.4-0.4,0.9,0.1,1.8-0.1c0.7-0.2,1.5-0.8,1.5-1.4
		c-0.1-0.7-1.3-1.1-1.8-1.2C64.3,137.9,63.8,137.9,63.4,138z"/>
	<path class="st3" d="M141.1,138c0.1-0.4,0.1-1.2-0.3-2c-0.1-0.2-0.6-1.4-1.3-1.4c-0.6,0-1,1-1.1,1.6c-0.2,0.9,0.1,1.3-0.2,1.7
		c-0.3,0.3-0.7,0.1-1.6,0.3c-0.6,0.1-1.7,0.6-1.8,1.2c-0.1,0.6,1,1.4,2,1.5c0.6,0.1,1-0.2,1.3,0.1c0.3,0.3,0,0.8,0.1,1.6
		c0.1,0.8,0.7,1.8,1.3,1.8c0.6,0,1-0.9,1.2-1.5c0.3-1-0.1-1.5,0.3-1.9c0.4-0.4,0.9,0.1,1.8-0.1c0.7-0.2,1.5-0.8,1.5-1.4
		c-0.1-0.7-1.3-1.1-1.8-1.2C142,137.9,141.5,137.9,141.1,138z"/>
	<path class="st3" d="M102.9,46c0.3-0.3,0.9-0.8,1.2-1.6c0.1-0.2,0.6-1.5,0.1-1.9c-0.4-0.4-1.4,0.1-1.9,0.3c-0.8,0.5-0.8,1-1.3,1
		c-0.5,0-0.6-0.4-1.3-0.9c-0.5-0.3-1.6-0.8-2.1-0.4c-0.5,0.4-0.3,1.7,0.3,2.5c0.4,0.5,0.8,0.6,0.9,1c0,0.4-0.5,0.5-1,1.2
		c-0.5,0.7-0.8,1.8-0.4,2.2c0.4,0.4,1.3,0.1,1.9-0.2c0.9-0.5,1-1.2,1.5-1.1c0.5,0,0.5,0.7,1.4,1.2c0.7,0.4,1.7,0.5,2.1,0
		c0.5-0.6-0.1-1.7-0.4-2.1C103.5,46.6,103.1,46.2,102.9,46z"/>
	<path class="st3" d="M102.9,155.5c0.3-0.3,0.9-0.8,1.2-1.6c0.1-0.2,0.6-1.5,0.1-1.9c-0.4-0.4-1.4,0.1-1.9,0.3c-0.8,0.5-0.8,1-1.3,1
		c-0.5,0-0.6-0.4-1.3-0.9c-0.5-0.3-1.6-0.8-2.1-0.4c-0.5,0.4-0.3,1.7,0.3,2.5c0.4,0.5,0.8,0.6,0.9,1c0,0.4-0.5,0.5-1,1.2
		c-0.5,0.7-0.8,1.8-0.4,2.2c0.4,0.4,1.3,0.1,1.9-0.2c0.9-0.5,1-1.2,1.5-1.1c0.5,0,0.5,0.7,1.4,1.2c0.7,0.4,1.7,0.5,2.1,0
		c0.5-0.6-0.1-1.7-0.4-2.1C103.5,156.1,103.2,155.7,102.9,155.5z"/>
	<path class="st3" d="M157.7,100.9c0.3-0.3,0.9-0.8,1.2-1.6c0.1-0.2,0.6-1.5,0.1-1.9c-0.4-0.4-1.4,0.1-1.9,0.3c-0.8,0.5-0.8,1-1.3,1
		c-0.5,0-0.6-0.4-1.3-0.9c-0.5-0.3-1.6-0.8-2.1-0.4c-0.5,0.4-0.3,1.7,0.3,2.5c0.4,0.5,0.8,0.6,0.9,1c0,0.4-0.5,0.5-1,1.2
		c-0.5,0.7-0.8,1.8-0.4,2.2c0.4,0.4,1.3,0.1,1.9-0.2c0.9-0.5,1-1.2,1.5-1.1c0.5,0,0.5,0.7,1.4,1.2c0.7,0.4,1.7,0.5,2.1,0
		c0.5-0.6-0.1-1.7-0.4-2.1C158.4,101.5,158,101.1,157.7,100.9z"/>
	<path class="st3" d="M48,100.9c0.3-0.3,0.9-0.8,1.2-1.6c0.1-0.2,0.6-1.5,0.1-1.9c-0.4-0.4-1.4,0.1-1.9,0.3c-0.8,0.5-0.8,1-1.3,1
		c-0.5,0-0.6-0.4-1.3-0.9c-0.5-0.3-1.6-0.8-2.1-0.4c-0.5,0.4-0.3,1.7,0.3,2.5c0.4,0.5,0.8,0.6,0.9,1c0,0.4-0.5,0.5-1,1.2
		c-0.5,0.7-0.8,1.8-0.4,2.2c0.4,0.4,1.3,0.1,1.9-0.2c0.9-0.5,1-1.2,1.5-1.1c0.5,0,0.5,0.7,1.4,1.2c0.7,0.4,1.7,0.5,2.1,0
		c0.5-0.6-0.1-1.7-0.4-2.1C48.7,101.5,48.3,101.1,48,100.9z"/>
</g>
</svg>
