<?xml version="1.0" encoding="utf-8"?>
<!-- Generator: Adobe Illustrator 22.0.1, SVG Export Plug-In . SVG Version: 6.00 Build 0)  -->
<svg version="1.1" id="레이어_2" xmlns="http://www.w3.org/2000/svg" xmlns:xlink="http://www.w3.org/1999/xlink" x="0px"
	 y="0px" viewBox="0 0 1000 1000" style="enable-background:new 0 0 1000 1000;" xml:space="preserve">
<style type="text/css">
	.st0{fill:#FF6338;}
</style>
<path class="st0" d="M278,336c-15.1-0.2-96.5-1.3-141.3,57c-9,11.7-13.8,22.2-16.3,28c-23.4,52.7-9,103.4-4.7,117
	c20.4,63.8,71.7,93.2,83,99.3c41.5,22.4,80.2,21.2,90,20.6c13.3-0.7,39.1-2.5,66.3-18.3c32.4-18.8,61.1-53.1,66.3-90
	c0.9-6,0.2-5.5,3-40.7c2.6-31.7,3.3-34.4,3-43c-0.4-9.9-2.3-30.7-13-53c-2.8-5.8-16.2-32.7-46.3-53C333.6,336.7,298.5,336.3,278,336
	z"/>
</svg>
