<?xml version="1.0" encoding="utf-8"?>
<!-- Generator: Adobe Illustrator 22.0.1, SVG Export Plug-In . SVG Version: 6.00 Build 0)  -->
<svg version="1.1" id="레이어_2" xmlns="http://www.w3.org/2000/svg" xmlns:xlink="http://www.w3.org/1999/xlink" x="0px"
	 y="0px" viewBox="0 0 1000 1000" style="enable-background:new 0 0 1000 1000;" xml:space="preserve">
<style type="text/css">
	.st0{fill:#E5DEDD;}
</style>
<path class="st0" d="M469.1,50.9C444.6,52.1,298.7,62,205.5,165.6c-2.2,2.4-11.6,12.9-22.7,28.4c-50.6,70.2-52.5,124.6-80.7,206.8
	c-27.4,80-39.9,69.9-54.5,121.6c-27.5,97-3.2,201.1,28.4,260.2c99.2,185.8,430.9,230.5,656.8,122.7c29.4-14,235.1-112.2,255.7-288.6
	c11.3-96.8-37.6-179.1-121.6-320.5c-46.8-78.8-74.1-123.6-130.7-165.9C623,45.8,497.6,49.4,469.1,50.9z"/>
</svg>
