<?xml version="1.0" encoding="utf-8"?>
<!-- Generator: Adobe Illustrator 22.0.1, SVG Export Plug-In . SVG Version: 6.00 Build 0)  -->
<svg version="1.1" id="레이어_1" xmlns="http://www.w3.org/2000/svg" xmlns:xlink="http://www.w3.org/1999/xlink" x="0px"
	 y="0px" viewBox="0 0 143.8 147.8" style="enable-background:new 0 0 143.8 147.8;" xml:space="preserve">
<style type="text/css">
	.st0{fill:#D9ABB3;}
</style>
<path class="st0" d="M118.1,10.8c10.2,7.5,14.2,23.5,18.5,38.9c4.4,15.4,9,30.2,5.1,42.1c-4,12-16.5,21.1-29,30.8
	c-12.6,9.6-25.1,19.7-40.3,23.3c-15.2,3.7-33.1,0.8-46.2-8.6C13,127.8,4.4,111.9,1.7,95.8c-2.8-16,0.3-32.2,4.2-49.2
	c4-17,8.9-34.8,20.5-41.9c11.7-7,30.1-3.3,47.6-2C91.4,4.2,107.9,3.3,118.1,10.8z"/>
</svg>
