<svg width="100" height="100" viewBox="0 0 100 100" fill="none" xmlns="http://www.w3.org/2000/svg">
<path d="M53.1763 0.339458C48.497 0.277748 23.2724 -0.0616525 9.38956 17.9266C6.60058 21.5366 5.11314 24.7764 4.33842 26.566C-2.9129 42.8263 1.54945 58.4697 2.88196 62.6659C9.20362 82.3512 25.1007 91.4224 28.6025 93.3046C41.4626 100.216 53.4552 99.8458 56.4921 99.6607C60.6136 99.4447 68.6086 98.8893 77.0375 94.0142C87.0778 88.2136 95.9715 77.6304 97.5829 66.245C97.8618 64.3938 97.6449 64.5481 98.5125 53.6872C99.3183 43.9063 99.5352 43.0732 99.4422 40.4197C99.3183 37.3651 98.7295 30.9473 95.4137 24.0667C94.546 22.2771 90.3935 13.9772 81.066 7.71372C70.406 0.555441 59.529 0.432022 53.1763 0.339458Z" fill="#D9ABB3"/>
<path d="M53.1118 59.2336C53.388 59.0151 53.7034 58.8571 54.0393 58.7692C54.3752 58.6814 54.7246 58.6655 55.0664 58.7225C55.4083 58.7795 55.7356 58.9081 56.0289 59.1008C56.3221 59.2935 56.5752 59.5462 56.7728 59.8438C57.3548 60.5143 58.0134 61.1074 58.7336 61.6096C60.6666 62.9533 62.9403 63.6585 65.2603 63.634C68.1912 63.634 70.3576 62.6182 71.787 61.6169C72.5072 61.1145 73.1657 60.5215 73.7478 59.8509L73.8198 59.7576C74.2311 59.188 74.8418 58.8126 75.5175 58.7143C76.1932 58.6161 76.8784 58.8029 77.4225 59.2336C77.9666 59.6643 78.325 60.3038 78.4188 61.0112C78.5128 61.7186 78.3343 62.4361 77.9229 63.0058L77.8304 63.1279C77.7859 63.1853 77.7276 63.2643 77.6522 63.354C77.5014 63.5335 77.2922 63.7811 77.0214 64.0646C76.2929 64.822 75.4948 65.5024 74.6391 66.0962C71.8608 68.027 68.5948 69.0445 65.2603 69.0178C61.9258 69.0445 58.6599 68.027 55.8815 66.0962C55.0258 65.5024 54.2278 64.822 53.4992 64.0646C53.2136 63.7679 52.9435 63.4552 52.6902 63.1279C51.8024 61.9363 51.9258 60.1704 53.1118 59.2372V59.2336Z" fill="white"/>
<path d="M54.9762 45.7953C54.9762 46.9852 54.5248 48.1264 53.7212 48.9678C52.9177 49.8092 51.8277 50.2818 50.6914 50.2818C49.555 50.2818 48.4651 49.8092 47.6615 48.9678C46.8579 48.1264 46.4065 46.9852 46.4065 45.7953C46.4065 44.6055 46.8579 43.4643 47.6615 42.6229C48.4651 41.7815 49.555 41.3088 50.6914 41.3088C51.8277 41.3088 52.9177 41.7815 53.7212 42.6229C54.5248 43.4643 54.9762 44.6055 54.9762 45.7953ZM79.8285 50.2818C80.9649 50.2818 82.0547 49.8092 82.8583 48.9678C83.6619 48.1264 84.1134 46.9852 84.1134 45.7953C84.1134 44.6055 83.6619 43.4643 82.8583 42.6229C82.0547 41.7815 80.9649 41.3088 79.8285 41.3088C78.692 41.3088 77.6022 41.7815 76.7986 42.6229C75.995 43.4643 75.5436 44.6055 75.5436 45.7953C75.5436 46.9852 75.995 48.1264 76.7986 48.9678C77.6022 49.8092 78.692 50.2818 79.8285 50.2818Z" fill="white"/>
</svg>
