<?xml version="1.0" encoding="utf-8"?>
<!-- Generator: Adobe Illustrator 22.0.1, SVG Export Plug-In . SVG Version: 6.00 Build 0)  -->
<svg version="1.1" id="레이어_2_1_" xmlns="http://www.w3.org/2000/svg" xmlns:xlink="http://www.w3.org/1999/xlink" x="0px"
	 y="0px" viewBox="0 0 950.7 917.4" style="enable-background:new 0 0 950.7 917.4;" xml:space="preserve">
<style type="text/css">
	.st0{fill:#E5DEDD;}
</style>
<path class="st0" d="M435.1,3.3C410.6,4.5,264.7,14.4,171.5,118c-2.2,2.4-11.6,12.9-22.7,28.4C98.2,216.6,96.3,271,68.1,353.2
	c-27.4,80-39.9,69.9-54.5,121.6c-27.5,97-3.2,201.1,28.4,260.2c99.2,185.8,430.9,230.5,656.8,122.7c29.4-14,235.1-112.2,255.7-288.6
	c11.3-96.8-37.6-179.1-121.6-320.5C786.1,169.8,758.8,125,702.2,82.7C589-1.8,463.6,1.8,435.1,3.3z"/>
</svg>
