<svg width="974" height="978" viewBox="0 0 974 978" fill="none" xmlns="http://www.w3.org/2000/svg">
<path d="M517.937 3.31971C472.361 2.71619 226.673 -0.60315 91.4541 175.322C64.2895 210.628 49.8018 242.313 42.256 259.815C-28.3718 418.841 15.0915 571.833 28.0701 612.872C89.6431 805.394 244.481 894.111 278.588 912.519C403.846 980.113 520.654 976.492 550.233 974.681C590.376 972.569 668.248 967.137 750.345 919.459C848.138 862.729 934.762 759.225 950.457 647.876C953.174 629.771 951.061 631.28 959.512 525.061C967.36 429.403 969.473 421.256 968.567 395.304C967.36 365.43 961.625 302.664 929.329 235.372C920.878 217.87 880.433 136.697 789.583 75.44C685.754 5.43202 579.812 4.22499 517.937 3.31971Z" fill="#D9ABB3"/>
<path d="M517.31 579.305C520 577.168 523.072 575.623 526.344 574.764C529.615 573.905 533.018 573.749 536.348 574.307C539.678 574.864 542.866 576.122 545.722 578.007C548.578 579.891 551.043 582.363 552.968 585.273C558.637 591.831 565.051 597.631 572.066 602.543C590.893 615.684 613.039 622.581 635.636 622.341C664.183 622.341 685.284 612.407 699.206 602.614C706.221 597.701 712.635 591.901 718.304 585.343L719.005 584.43C723.012 578.859 728.96 575.188 735.541 574.227C742.122 573.266 748.796 575.093 754.096 579.305C759.395 583.518 762.886 589.772 763.8 596.69C764.715 603.609 762.977 610.626 758.97 616.198L758.069 617.392C757.635 617.953 757.067 618.726 756.333 619.603C754.864 621.358 752.827 623.78 750.189 626.553C743.093 633.96 735.32 640.614 726.985 646.422C699.925 665.305 668.114 675.256 635.636 674.995C603.158 675.256 571.348 665.305 544.287 646.422C535.952 640.614 528.18 633.96 521.083 626.553C518.301 623.651 515.671 620.593 513.203 617.392C504.556 605.738 505.758 588.467 517.31 579.341V579.305Z" fill="white"/>
<path d="M535.469 447.878C535.469 459.515 531.072 470.676 523.245 478.905C515.419 487.134 504.803 491.756 493.735 491.756C482.666 491.756 472.051 487.134 464.224 478.905C456.397 470.676 452 459.515 452 447.878C452 436.241 456.397 425.08 464.224 416.852C472.051 408.623 482.666 404 493.735 404C504.803 404 515.419 408.623 523.245 416.852C531.072 425.08 535.469 436.241 535.469 447.878ZM777.53 491.756C788.599 491.756 799.214 487.134 807.041 478.905C814.868 470.676 819.265 459.515 819.265 447.878C819.265 436.241 814.868 425.08 807.041 416.852C799.214 408.623 788.599 404 777.53 404C766.461 404 755.846 408.623 748.019 416.852C740.192 425.08 735.795 436.241 735.795 447.878C735.795 459.515 740.192 470.676 748.019 478.905C755.846 487.134 766.461 491.756 777.53 491.756V491.756Z" fill="white"/>
</svg>
